<?xml version="1.0" encoding="UTF-8" standalone="no"?>
<svg xmlns="http://www.w3.org/2000/svg" xmlns:xlink="http://www.w3.org/1999/xlink" width="640.000mm" height="360.000mm" viewBox="0.000000 0.000000 640.000000 360.000000" stroke-linejoin="round" stroke-linecap="round" fill="none" fill-rule="evenodd"><desc>Composer Export</desc><script type="text/ecmascript"><![CDATA[
if(typeof(top) != "undefined")
{
	top.ShowPaper = ShowPaper;
}
function ShowHotSpot(evt,hotspotid)
{
	var svgDocument = evt.target.ownerDocument;
	var strId = "hotspot."+hotspotid;
	var hotspot = svgDocument.getElementById(strId);
	if(hotspot)
		hotspot.setAttribute("opacity",".5");
}
function HideHotSpot(evt,hotspotid)
{
	var svgDocument = evt.target.ownerDocument;
	var strId = "hotspot."+hotspotid;
	var hotspot = svgDocument.getElementById(strId);
	if(hotspot)
		hotspot.setAttribute("opacity","0");

	var toolTip = svgDocument.getElementById('ToolTip');
	if(toolTip)
		toolTip.setAttribute("visibility","hidden");
}
function ShowToolTip(evt,hotspotid,strTooltip)
{
	if(strTooltip=="")
	return;

	// change text
	var svgDocument = evt.target.ownerDocument;
	var tiptext = svgDocument.getElementById('ToolTipText');
	if( !tiptext )
	return;
	tiptext.firstChild.nodeValue = " " + strTooltip + "  " ;

	// show tooltip before, else some refresh issue

	var toolTip = svgDocument.getElementById('ToolTip');
	if(!toolTip)
	return;

	toolTip.setAttribute("visibility","visible");
	toolTip.setAttribute("opacity",".95");

	// move tooltip
	// get viewbox

	var root = svgDocument.documentElement;
	var vbox = (root.getAttribute("viewBox")).split(' ');
	var x0 = parseFloat(vbox[0]);
	var y0 = parseFloat(vbox[1]);
	var vboxW = parseFloat(vbox[2]);
	var vboxH = parseFloat(vbox[3]);

	// get default width of svg

	var strW = root.getAttribute("width");
	var svgW = parseFloat(strW);
	if(strW.indexOf('mm') != -1)
	svgW *= 3.779;

	var strH = root.getAttribute("height");
	var svgH = parseFloat(strH);
	if(strH.indexOf('mm') != -1)
	svgH *= 3.779;  	// 96 dpi  -> 96/25.4 = 3.779

	// update the viewbox / width / height if svg is embedded in html with zoom fit all
	var realx0 = x0;
	var realy0 = y0;
	var realvboxW = vboxW;
	var realvboxH = vboxH;
	var realsvgW = svgW;
	var realsvgH = svgH;

	if ((typeof(top) == "undefined") || (typeof(top.svgctl1) != "undefined")) // embedded in html
	{
		// get window size in pxl

		svgW = window.innerWidth;
		svgH = window.innerHeight;

		// calculate real viewbox

		realsvgW = svgW;
		realsvgH = svgH;
		if((svgW / svgH) > (vboxW / vboxH))
		{
			realvboxW = (vboxH * svgW) / svgH;
			realvboxH = vboxH;
			realx0 = x0 - (realvboxW - vboxW)/2 ;
		}
		else
		{
			realvboxH = (vboxW * svgH) / svgW;
			realvboxW = vboxW;
			realy0 = y0 - (realvboxH - vboxH)/2 ;
		}
	}

	// get user zoom/pan

	var newScale = root.currentScale;
	var translation = root.currentTranslate;

	// transform pxl to user unit

	var xPos = (((evt.clientX+10- translation.x)/newScale) * realvboxW)/realsvgW  + realx0 ;
	var yPos = (((evt.clientY+5- translation.y)/newScale) * realvboxH)/ realsvgH  + realy0 ;
	var scaleForWidth = ( (1 / newScale) * realvboxH) / realsvgH;

	// move tooltip

	toolTip.setAttribute("transform", "translate(" + xPos + "," + yPos + ")" );

	// resize tooltip

	var fontsize = 12;
	tiptext.setAttribute("font-size",fontsize*scaleForWidth);
	tiptext.setAttribute("y", fontsize*scaleForWidth);
	var tipBG = svgDocument.getElementById('ToolTipBG');
	var outline = tiptext.getBBox();
	if(tipBG)
	{
		tipBG.setAttribute("stroke-width", 1*scaleForWidth);
		tipBG.setAttribute("width", Number(outline.width) );
		tipBG.setAttribute("height", Number(outline.height) + fontsize*.5*scaleForWidth );
	}
	var ToolTipShadow = svgDocument.getElementById('ToolTipShadow');
	if(ToolTipShadow)
	{
		ToolTipShadow.setAttribute("width", Number(outline.width) );
		ToolTipShadow.setAttribute("height", Number(outline.height) + fontsize*.5*scaleForWidth );
		ToolTipShadow.setAttribute("x", 3*scaleForWidth);
		ToolTipShadow.setAttribute("y", 3*scaleForWidth);
	}
}
function ShowPaper()
{
  var svgDocument = getDocument();
  var paper = svgDocument.getElementById("paperID");
  if(paper)
  {
    paper.setAttribute("transform","scale(1)");
    paper.setAttribute("opacity","1");
    paper.setAttribute("visibility","visible");
  }
  var svg = svgDocument.getRootElement();
  if(svg)
  {
    svg.setAttribute("width","650.000mm");
    svg.setAttribute("height","370.000mm");
    svg.setAttribute("viewBox","-5.000000 -5.000000 650.000000 370.000000");
  }
}
]]></script><defs/><g><path style="fill:#ffffff" d="M639.96,359.90L0.06,359.90L0.06,0.06L639.96,0.06z"/><path style="fill:#62656a" d="M352.49,25.29L357.55,25.94L362.59,26.83L372.49,28.80L394.79,33.21L445.92,52.54L450.76,54.50L454.71,57.80L455.82,59.10L457.34,61.31L458.66,64.82L458.78,66.28L458.90,67.39L458.87,75.43L458.66,76.32L457.69,77.54L455.07,79.09L448.12,81.79L447.92,84.88L445.71,86.40L438.58,89.08L438.46,88.77L434.98,87.41L434.58,87.09L434.50,86.97L433.94,87.10L433.76,87.20L430.50,88.32L429.11,88.62L426.91,89.07L423.84,89.38L421.19,89.51L417.68,89.38L416.59,89.28L415.70,89.15L414.18,88.93L411.98,88.50L409.05,87.66L403.35,85.45L399.91,84.45L396.62,83.89L395.08,83.79L393.38,83.70L393.89,83.92L393.92,103.75L392.51,103.75L392.37,83.68L392.37,139.10L392.49,124.67L395.30,124.41L395.94,124.26L398.32,123.31L398.26,121.45L398.02,121.23L401.30,120.13L402.49,119.35L403.34,118.23L404.78,115.45L405.00,110.18L432.76,120.57L435.42,121.86L435.96,122.90L435.95,127.31L435.85,140.69L435.52,146.63L434.86,151.89L434.63,153.19L433.64,158.40L425.51,184.73L424.77,186.41L422.15,187.95L357.84,212.32L349.79,215.24L344.73,216.77L338.67,218.12L334.28,219.00L323.53,220.98L320.52,221.33L317.37,221.08L314.23,220.22L209.31,180.50L207.34,178.96L207.34,142.14L207.99,142.07L208.67,143.17L227.09,150.21L228.12,150.43L228.85,150.41L233.34,152.13L233.76,152.71L252.77,159.89L253.36,159.88L255.73,158.89L257.10,158.55L260.06,157.39L260.24,159.29L260.26,156.27L260.58,149.04L261.24,142.68L261.46,140.91L262.24,135.63L262.77,134.37L264.55,133.08L268.44,131.50L290.99,122.87L291.09,116.77L291.18,115.52L291.09,115.44L290.96,112.53L290.99,91.31L291.01,86.27L291.09,78.80L291.31,77.04L291.62,75.64L291.95,74.84L292.31,73.84L291.97,73.94L288.32,64.40L288.24,54.66L288.54,52.15L289.55,49.43L290.88,47.46L293.31,45.07L296.16,43.09L306.93,38.93L342.92,25.32L344.81,24.98L348.32,24.85z"/><path style="fill:#d4d4d4" d="M284.47,88.71L284.80,88.97L290.99,91.31L290.96,112.53L291.09,115.44L291.09,116.77L290.99,122.87L268.44,131.50L256.07,126.72L254.90,126.71L254.64,126.85L254.44,126.72L254.18,127.05L244.95,130.57L242.39,131.55L241.21,132.60L240.94,133.45L233.83,130.74L233.70,128.01L232.60,127.36L231.47,125.64L231.27,124.53L231.25,123.26L231.43,122.79L233.68,121.96L233.69,119.68L232.59,117.93L222.73,114.18L220.74,113.32L219.31,113.25L219.54,112.88L283.88,88.51z"/><path style="fill:#000020" d="M393.38,83.70L395.08,83.79L394.26,83.91L394.20,103.99L392.51,104.10L392.51,110.99L393.27,111.14L392.51,111.35L392.51,121.75L393.71,121.89L392.51,122.10L392.49,124.67L392.37,139.10L392.37,83.68L392.51,103.75L393.92,103.75L393.89,83.92z"/><path style="fill:#9f9fa4" d="M298.42,123.66L303.55,125.38L304.21,125.50L308.61,126.47L313.42,127.13L316.28,127.35L324.40,127.47L327.26,127.36L329.23,127.14L330.78,126.82L333.05,126.29L344.02,122.08L344.52,122.09L344.53,124.17L343.43,126.14L342.11,127.23L341.26,127.96L341.14,134.33L340.92,135.87L340.78,136.24L340.79,142.30L342.80,143.80L343.98,145.74L343.98,151.88L342.90,153.70L340.59,155.56L337.65,157.01L332.31,158.74L328.06,159.49L323.30,159.96L314.96,159.84L312.54,159.62L310.79,159.40L308.38,158.96L305.88,158.33L301.28,156.79L298.45,155.24L296.69,153.92L295.57,151.97L295.56,145.65L296.80,143.82L298.53,142.41L298.87,147.00L298.89,135.41L298.98,134.78L299.32,134.91L299.21,127.96L298.65,127.38L297.12,126.27L296.00,124.32L296.02,122.31z"/><path style="fill:#cbcbcb" d="M357.34,30.01L360.11,30.80L362.53,32.11L363.96,33.80L363.95,37.73L362.74,38.34L358.44,39.56L357.54,39.68L354.04,40.00L350.52,40.00L346.57,39.56L343.19,38.72L341.23,37.82L341.04,36.66L341.04,34.24L342.03,32.55L344.45,31.02L346.81,30.26L347.44,30.12L349.64,29.80L354.25,29.68z"/><path style="fill:#cbcbcb" d="M395.51,37.06L397.42,37.83L399.39,38.92L401.60,40.67L403.79,43.74L403.80,46.25L402.91,47.34L401.08,48.36L398.46,49.25L395.81,49.68L388.42,49.68L386.66,49.47L383.59,48.59L381.19,47.25L380.31,45.89L380.36,43.71L382.18,41.32L384.24,39.43L387.11,37.68L388.57,37.17L390.01,36.81L392.89,36.70z"/><path style="fill:#cbcbcb" d="M322.36,36.95L324.11,37.61L326.53,38.92L328.52,40.66L330.71,43.52L330.71,46.03L329.74,47.25L327.62,48.43L324.93,49.25L321.63,49.68L316.21,49.68L313.12,49.25L310.71,48.59L308.32,47.25L307.42,46.19L307.23,45.67L307.24,43.68L309.21,40.99L310.72,39.65L313.29,37.83L316.80,36.73L318.91,36.61L320.02,36.60z"/><path style="fill:#cbcbcb" d="M430.87,50.43L434.51,52.09L437.17,54.27L439.35,57.35L439.36,59.64L438.16,60.86L436.63,61.75L433.14,62.86L429.61,63.29L425.51,63.29L421.99,62.86L418.49,61.75L416.97,60.86L415.86,59.77L415.86,57.00L417.96,54.27L420.40,52.32L422.15,51.21L424.13,50.56L425.57,50.20L428.23,50.10z"/><path style="fill:#cbcbcb" d="M363.03,53.73L364.93,54.29L368.01,55.83L369.34,57.57L369.32,61.38L368.16,61.98L363.49,63.27L360.17,63.60L354.25,63.48L351.18,63.04L347.16,61.75L346.56,61.43L346.49,58.45L346.39,58.37L346.51,57.66L347.61,56.13L349.72,54.73L352.92,53.72L354.48,53.51L357.76,53.29L359.53,53.28z"/><path style="fill:#cbcbcb" d="M322.66,61.40L324.77,62.19L326.31,63.06L328.95,65.04L331.25,68.26L331.27,70.25L331.14,70.63L330.02,71.90L328.43,72.72L325.64,73.67L321.41,74.26L317.52,74.26L314.01,73.83L310.94,72.95L308.76,71.83L307.66,70.25L307.68,68.26L309.53,65.68L311.59,63.79L314.45,62.04L317.58,61.18L320.24,61.07z"/><path style="fill:#cbcbcb" d="M434.98,87.41L438.46,88.77L438.58,89.08L437.79,90.12L436.96,90.60L434.89,91.39L432.62,91.92L430.64,92.24L428.65,92.35L424.27,92.24L421.64,91.79L419.14,91.17L416.30,89.61L416.14,89.39L416.59,89.28L417.68,89.38L421.19,89.51L423.84,89.38L426.91,89.07L429.11,88.62L430.50,88.32L433.76,87.20L433.94,87.10L434.58,87.09z"/><path style="fill:#cbcbcb" d="M396.84,104.30L399.84,104.98L401.81,105.87L404.75,107.80L404.78,115.45L403.34,118.23L402.49,119.35L401.30,120.13L398.02,121.23L398.26,121.45L398.32,123.31L395.94,124.26L395.30,124.41L392.49,124.67L392.51,122.10L393.71,121.89L392.51,121.75L392.51,111.35L393.27,111.14L392.51,110.99L392.51,104.10L394.20,103.99z"/><path style="fill:#404040" d="M222.73,114.18L232.59,117.93L233.69,119.68L233.68,121.96L231.43,122.79L231.25,123.26L231.27,124.53L231.47,125.64L232.60,127.36L233.70,128.01L233.83,130.74L240.94,133.45L241.01,134.33L240.18,134.42L240.08,134.56L237.78,135.50L237.78,137.33L239.16,137.92L239.60,139.02L240.28,140.10L241.05,140.69L240.96,141.56L223.37,134.84L223.36,132.04L224.17,132.01L226.51,131.21L226.65,131.18L226.65,129.35L226.53,129.31L225.12,128.69L224.27,126.91L223.36,126.06L223.16,123.85L222.09,122.07L209.50,117.26L209.47,117.07L219.17,113.38L219.31,113.25L220.74,113.32z"/><path style="fill:#404040" d="M268.44,131.50L264.55,133.08L262.77,134.37L262.24,135.63L261.46,140.91L261.24,142.68L260.58,149.04L260.26,156.27L260.06,157.39L257.10,158.55L255.73,158.89L258.21,156.36L258.48,156.20L258.50,137.02L257.39,135.27L245.08,130.64L244.95,130.57L254.18,127.05L254.64,126.85L254.90,126.71L256.07,126.72z"/><path style="fill:#d4d4d4" d="M219.01,136.30L220.08,137.46L220.74,137.69L221.16,138.00L221.64,139.53L221.07,140.04L221.20,140.69L221.30,141.35L221.30,142.67L220.96,144.37L220.43,144.94L219.64,144.94L218.09,144.73L216.36,143.61L215.46,142.53L214.83,140.92L214.80,140.32L214.70,140.25L214.94,137.46L216.39,135.47L216.64,135.38L217.73,135.38L218.40,135.39L218.64,135.46z"/><path style="fill:#d4d4d4" d="M244.24,145.57L245.77,146.67L247.29,148.89L247.86,151.00L247.85,152.77L247.67,153.95L246.93,155.02L246.27,154.99L244.86,154.83L243.58,154.14L242.70,153.48L241.38,151.02L241.36,148.51L241.92,146.88L243.26,145.37L243.98,145.15z"/><path style="fill:#000020" d="M364.28,37.63L363.95,37.73L363.96,33.80L364.06,33.87z"/><path style="fill:#000020" d="M380.31,45.89L380.24,43.76L380.36,43.71z"/><path style="fill:#000020" d="M346.56,61.43L346.43,61.38L346.39,58.37L346.49,58.45z"/><path style="fill:#000020" d="M458.90,67.39L458.78,66.28L458.87,66.36z"/><path style="fill:#000020" d="M331.27,70.25L331.25,68.26L331.36,68.32z"/><path style="fill:#000020" d="M291.95,74.84L291.97,73.94L292.31,73.84z"/><path style="fill:#000020" d="M434.58,87.09L433.94,87.10L434.50,86.97z"/><path style="fill:#000020" d="M416.59,89.28L416.14,89.39L415.70,89.15z"/><path style="fill:#000020" d="M405.00,110.18L404.78,115.45L404.75,107.80L404.87,107.85z"/><path style="fill:#000020" d="M291.09,116.77L291.09,115.44L291.18,115.52z"/><path style="fill:#000020" d="M254.64,126.85L254.18,127.05L254.44,126.72z"/><path style="fill:#000020" d="M435.95,127.31L435.96,122.90L436.05,122.98z"/><path style="fill:#000020" d="M226.65,131.18L226.51,131.21L226.53,129.31L226.65,129.35z"/><path style="fill:#000020" d="M241.15,134.26L241.01,134.33L240.94,133.45L241.21,132.60z"/><path style="fill:#000020" d="M298.98,134.78L299.21,127.96L299.32,134.91z"/><path style="fill:#000020" d="M240.41,134.66L240.08,134.56L240.18,134.42L241.01,134.33z"/><path style="fill:#000020" d="M218.40,135.39L217.73,135.38L218.30,135.27z"/><path style="fill:#000020" d="M216.64,135.38L216.39,135.47L216.05,135.26z"/><path style="fill:#000020" d="M218.64,135.46L218.97,130.43L219.01,136.30z"/><path style="fill:#000020" d="M221.20,140.69L221.07,140.04L221.15,140.10z"/><path style="fill:#000020" d="M214.83,140.92L214.70,140.25L214.80,140.32z"/><path style="fill:#000020" d="M298.53,142.41L298.66,142.16L298.89,135.41L298.87,147.00z"/><path style="fill:#000020" d="M221.30,142.67L221.30,141.35L221.38,141.42z"/><path style="fill:#000020" d="M241.14,143.05L240.96,141.56L241.05,140.69L241.15,140.75z"/><path style="fill:#000020" d="M343.98,151.88L343.98,145.74L344.08,145.81z"/><path style="fill:#000020" d="M233.34,152.13L233.68,144.48L233.76,152.71z"/><path style="fill:#000020" d="M247.85,152.77L247.86,151.00L247.94,151.08z"/><path style="fill:#000020" d="M246.27,154.99L246.93,155.02L246.88,155.31z"/><path style="fill:#000020" d="M260.24,159.29L260.06,157.39L260.26,156.27z"/><path style="fill:#404040" d="M284.47,88.71L291.01,86.27L290.99,91.31L284.80,88.97z"/><g id="Actor_31.0"><g style="stroke:#000020;stroke-width:0.353"><path d="M416.92,60.95 C418.00,61.54 418.01,61.55 419.11,62.09 C420.61,62.53 420.62,62.53 422.13,62.92 C423.89,63.16 423.90,63.16 425.67,63.35 C427.53,63.37 427.54,63.37 429.40,63.35 C431.17,63.16 431.17,63.16 432.94,62.92 C434.45,62.53 434.46,62.53 435.96,62.09 C437.06,61.55 437.07,61.54 438.15,60.95 "/><path d="M438.15,59.99 C437.07,60.59 437.06,60.59 435.96,61.13 C434.46,61.57 434.45,61.57 432.94,61.96 C431.17,62.20 431.17,62.20 429.40,62.40 C427.54,62.42 427.53,62.42 425.67,62.40 C423.90,62.20 423.89,62.20 422.13,61.96 C420.62,61.57 420.61,61.57 419.11,61.13 C418.46,60.81 418.45,60.81 417.81,60.46 "/><path d="M415.77,57.25 C416.57,56.03 416.58,56.03 417.43,54.85 C418.39,53.91 418.40,53.91 419.40,53.01 C420.63,52.17 420.64,52.18 421.89,51.38 C422.49,51.10 422.49,51.10 423.10,50.85 "/><path d="M422.23,53.78 C423.20,54.18 423.21,54.18 424.20,54.53 C425.51,54.73 425.52,54.73 426.83,54.88 C428.22,54.84 428.22,54.84 429.60,54.76 C430.79,54.50 430.80,54.51 431.97,54.20 C432.72,53.78 432.73,53.78 433.45,53.31 "/><path d="M432.84,51.26 C431.87,50.87 431.86,50.86 430.87,50.52 C429.56,50.32 429.55,50.33 428.24,50.17 C427.86,50.18 427.85,50.19 427.47,50.20 C426.47,50.25 426.46,50.23 425.46,50.29 C424.28,50.55 424.28,50.55 423.10,50.85 "/><path d="M431.30,52.17 C430.89,52.10 430.89,52.10 430.49,52.01 C430.08,51.80 430.08,51.79 429.68,51.56 C429.23,51.17 429.22,51.17 428.78,50.76 "/><path d="M431.91,53.29 C431.44,53.57 431.43,53.57 430.95,53.81 C430.27,54.01 430.26,54.01 429.57,54.18 C428.77,54.27 428.76,54.27 427.95,54.34 C427.12,54.32 427.12,54.32 426.29,54.29 C425.53,54.16 425.52,54.16 424.77,54.02 C424.17,53.81 424.17,53.81 423.58,53.57 "/><path d="M423.16,51.75 C423.63,51.48 423.64,51.48 424.12,51.24 C424.80,51.04 424.81,51.04 425.49,50.87 C426.30,50.78 426.30,50.78 427.11,50.71 C427.95,50.72 427.95,50.72 428.78,50.76 "/><path d="M428.78,50.76 C428.18,51.06 428.17,51.07 427.55,51.34 C427.01,51.48 427.00,51.49 426.45,51.60 C425.90,51.60 425.90,51.60 425.35,51.57 C424.74,51.42 424.73,51.41 424.12,51.24 "/><path d="M437.29,54.39 C436.16,53.40 436.16,53.40 435.02,52.44 C434.62,52.22 434.61,52.23 434.21,52.02 C433.53,51.64 433.53,51.63 432.84,51.26 C432.20,50.99 432.20,50.99 431.55,50.72 C431.21,50.62 431.21,50.62 430.87,50.52 "/><path d="M417.81,60.46 L416.92,59.99 L415.77,58.65 L415.77,57.99 L415.77,59.61 L416.92,60.95 "/><path d="M438.15,60.95 L439.30,59.61 L439.30,58.65 L438.15,59.99 "/><path d="M415.77,58.65 L415.77,59.61 L415.77,57.95 "/><path d="M415.77,57.99 L415.77,57.25 "/><path d="M423.10,50.85 L421.62,51.74 L421.31,52.79 L422.23,53.78 "/><path d="M433.45,53.31 L433.76,52.26 L432.84,51.26 "/><path d="M423.10,50.85 L423.85,50.64 L425.46,50.29 "/><path d="M431.61,53.45 L431.87,52.97 L432.19,52.05 L431.30,52.17 "/><path d="M428.78,50.76 L430.30,51.03 L431.49,51.48 L432.19,52.05 L432.34,52.68 L431.91,53.29 "/><path d="M423.58,53.57 L422.87,53.00 L422.73,52.37 L423.16,51.75 "/><path d="M424.12,51.24 L424.12,53.77 "/><path d="M422.87,53.00 L423.20,52.99 L423.50,52.71 L423.79,52.16 L424.12,51.24 "/><path d="M428.78,54.26 L428.78,50.76 "/><path d="M439.30,58.65 L439.30,57.99 L439.30,58.28 "/><path d="M439.30,57.99 L439.30,57.25 L437.29,54.39 "/></g></g><g id="Actor_17.0"><g style="stroke:#000020;stroke-width:0.353"><path d="M297.15,126.29 C298.31,127.24 298.32,127.25 299.53,128.15 C301.21,128.99 301.22,128.99 302.94,129.77 C305.07,130.44 305.07,130.44 307.22,131.06 C309.68,131.53 309.68,131.53 312.15,131.95 C314.82,132.21 314.82,132.21 317.49,132.41 C320.22,132.44 320.23,132.44 322.96,132.41 C325.63,132.21 325.63,132.21 328.30,131.95 C330.77,131.53 330.77,131.53 333.23,131.06 C335.38,130.44 335.38,130.44 337.51,129.77 C339.23,128.99 339.24,128.99 340.92,128.15 C342.13,127.25 342.14,127.24 343.30,126.29 "/><path d="M298.78,123.69 C299.14,124.00 299.14,124.00 299.53,124.28 C301.22,125.10 301.22,125.12 302.94,125.90 C305.07,126.57 305.07,126.57 307.22,127.19 C309.68,127.66 309.68,127.66 312.15,128.08 C314.82,128.34 314.82,128.34 317.49,128.54 C320.22,128.57 320.23,128.57 322.96,128.54 C325.63,128.34 325.63,128.34 328.30,128.08 C330.77,127.66 330.77,127.66 333.23,127.19 C335.38,126.57 335.38,126.57 337.51,125.90 C339.23,125.12 339.24,125.12 340.92,124.28 C342.13,123.38 342.14,123.37 343.30,122.42 "/><path d="M305.45,140.42 C307.42,141.04 307.43,141.04 309.42,141.60 C311.68,142.01 311.69,142.01 313.96,142.37 C316.46,142.57 316.46,142.57 318.96,142.72 C321.48,142.69 321.48,142.69 323.99,142.61 C326.40,142.35 326.40,142.35 328.80,142.04 C330.96,141.57 330.96,141.58 333.11,141.06 C334.90,140.41 334.91,140.41 336.67,139.71 C337.90,138.98 337.89,138.95 339.10,138.19 C339.19,138.14 339.19,138.14 339.28,138.08 "/><path d="M295.93,122.23 L295.93,124.27 L297.15,126.29 "/><path d="M343.30,126.29 L344.52,124.27 L344.52,123.31 "/><path d="M299.37,128.03 L299.37,135.32 L300.28,137.19 L302.34,138.93 L305.45,140.42 L305.45,130.52 "/><path d="M343.30,122.42 L343.38,122.29 "/><path d="M339.28,138.08 L340.78,136.27 L341.08,134.37 L341.08,128.03 "/><path d="M344.52,124.27 L344.52,121.86 "/></g></g><g id="Actor_20.0"><g style="stroke:#000020;stroke-width:0.353"><path d="M419.29,91.11 C420.47,91.47 420.47,91.47 421.67,91.80 C423.05,92.03 423.05,92.03 424.44,92.23 C425.92,92.32 425.93,92.32 427.41,92.38 C428.90,92.32 428.90,92.32 430.39,92.23 C431.77,92.03 431.78,92.03 433.16,91.80 C434.35,91.47 434.35,91.46 435.54,91.11 C436.17,90.87 436.17,90.87 436.80,90.63 "/><path d="M436.80,90.63 C435.11,91.18 435.11,91.19 433.42,91.70 C431.91,91.98 431.90,91.99 430.39,92.23 C428.88,92.29 428.87,92.29 427.36,92.31 C425.67,92.14 425.66,92.14 423.98,91.93 "/><path d="M415.72,89.14 L417.07,90.04 L419.29,91.11 L419.28,91.10 "/><path d="M423.98,91.93 L421.51,91.72 L419.29,91.11 "/><path d="M423.98,91.93 L423.98,89.35 "/><path d="M438.72,88.81 L438.51,89.16 L437.70,90.08 L436.80,90.63 L436.80,88.08 "/></g></g><g id="Actor_17.1"><g style="stroke:#000020;stroke-width:0.353"><path d="M296.66,149.99 C297.82,150.94 297.83,150.95 299.04,151.85 C300.72,152.69 300.73,152.69 302.45,153.47 C304.58,154.14 304.59,154.14 306.73,154.76 C309.13,155.22 309.14,155.19 311.55,155.63 C311.61,155.64 311.61,155.64 311.66,155.65 C314.33,155.88 314.33,155.91 317.00,156.11 C319.74,156.14 319.74,156.14 322.47,156.11 C325.14,155.91 325.15,155.91 327.81,155.65 C330.28,155.23 330.28,155.23 332.74,154.76 C334.89,154.14 334.89,154.14 337.02,153.47 C338.74,152.69 338.75,152.69 340.44,151.85 C341.64,150.95 341.65,150.94 342.81,149.99 "/><path d="M342.81,153.85 C341.65,154.81 341.64,154.82 340.44,155.72 C338.75,156.56 338.74,156.56 337.02,157.33 C334.89,158.01 334.89,158.01 332.74,158.62 C330.28,159.10 330.28,159.10 327.81,159.52 C325.15,159.78 325.14,159.77 322.47,159.98 C320.63,160.00 320.63,159.98 318.79,159.98 C317.90,159.98 317.90,159.99 317.00,159.98 C314.33,159.76 314.33,159.78 311.66,159.52 C309.19,159.10 309.19,159.10 306.73,158.62 C304.59,158.01 304.58,158.01 302.45,157.33 C300.73,156.56 300.73,156.55 299.04,155.72 C298.03,154.97 298.02,154.96 297.06,154.16 "/><path d="M304.96,152.52 C306.94,153.13 306.94,153.13 308.93,153.69 C311.22,154.11 311.22,154.11 313.52,154.47 C316.00,154.67 316.00,154.65 318.48,154.81 C318.63,154.81 318.63,154.81 318.79,154.81 C321.15,154.75 321.15,154.78 323.50,154.70 C325.91,154.44 325.91,154.44 328.31,154.13 C330.47,153.67 330.48,153.67 332.62,153.15 C334.41,152.50 334.42,152.51 336.18,151.80 C337.50,151.02 337.51,151.01 338.79,150.17 "/><path d="M304.96,140.91 C306.94,141.52 306.94,141.52 308.93,142.08 C311.22,142.50 311.22,142.50 313.52,142.87 C316.00,143.06 316.00,143.06 318.48,143.21 C320.99,143.17 320.99,143.17 323.50,143.09 C325.91,142.83 325.91,142.83 328.31,142.53 C330.47,142.06 330.48,142.06 332.62,141.54 C334.41,140.90 334.42,140.90 336.18,140.20 C337.50,139.41 337.51,139.41 338.79,138.57 "/><path d="M297.06,154.16 L296.66,153.85 L295.45,151.84 L295.45,147.38 L295.45,147.97 L296.66,149.99 "/><path d="M342.81,149.99 L344.03,147.97 L344.03,151.84 L342.81,153.85 "/><path d="M298.88,142.14 L296.66,143.88 L295.45,145.90 L295.45,149.80 L295.45,147.97 "/><path d="M295.45,147.38 L295.45,146.70 "/><path d="M299.47,148.63 L298.88,147.41 L298.88,135.80 L299.79,137.68 L299.84,137.72 L301.86,139.41 L304.96,140.91 L304.96,152.52 L301.86,151.02 L299.79,149.28 L299.47,148.63 "/><path d="M299.37,133.68 L299.19,133.90 L298.88,135.80 "/><path d="M338.79,150.17 L340.29,148.36 L340.59,146.46 L340.59,136.49 "/><path d="M338.79,138.57 L339.10,138.19 "/><path d="M344.03,147.97 L344.03,145.90 L342.81,143.88 L340.59,142.14 "/></g></g><g id="Actor_26.0"><g style="stroke:#000020;stroke-width:0.353"><path d="M392.29,107.44 L393.16,107.44 L395.03,107.84 L396.11,108.55 L396.11,109.37 L395.03,110.08 L393.16,110.49 L392.29,110.49 "/><path d="M398.31,123.31 L398.31,121.17 "/><path d="M396.11,108.55 L397.38,109.64 L397.92,110.22 "/></g></g><g id="Actor_30.0"><g style="stroke:#000020;stroke-width:0.353"><path d="M342.17,34.93 C342.94,35.54 342.94,35.55 343.73,36.14 C344.30,36.41 344.30,36.40 344.88,36.65 C345.56,36.87 345.56,36.88 346.24,37.09 C347.84,37.39 347.84,37.40 349.44,37.68 C351.20,37.78 351.20,37.78 352.97,37.84 C354.71,37.73 354.71,37.73 356.45,37.57 C357.98,37.25 357.99,37.25 359.50,36.88 C360.66,36.39 360.67,36.39 361.80,35.85 "/><path d="M362.23,31.97 C361.21,31.40 361.20,31.40 360.16,30.88 C358.72,30.46 358.72,30.46 357.27,30.10 C355.57,29.88 355.56,29.88 353.86,29.71 C352.08,29.72 352.08,29.72 350.30,29.77 C348.65,29.99 348.64,29.99 346.99,30.26 C345.63,30.67 345.62,30.66 344.28,31.13 C343.36,31.67 343.36,31.70 342.46,32.28 C342.13,32.55 342.13,32.55 341.82,32.82 "/><path d="M341.51,35.64 C342.32,36.30 342.33,36.30 343.17,36.93 C343.77,37.22 343.78,37.21 344.40,37.47 C345.12,37.71 345.12,37.72 345.84,37.94 C347.54,38.26 347.54,38.27 349.24,38.56 C351.12,38.68 351.12,38.68 353.00,38.74 C354.85,38.62 354.85,38.62 356.70,38.45 C358.33,38.11 358.33,38.11 359.95,37.72 C361.18,37.20 361.19,37.20 362.39,36.63 "/><path d="M347.58,35.07 C348.31,35.36 348.32,35.37 349.06,35.63 C350.01,35.81 350.01,35.81 350.96,35.96 C352.00,36.01 352.00,36.01 353.05,36.03 C354.06,35.95 354.06,35.95 355.07,35.83 C355.93,35.62 355.94,35.62 356.79,35.38 C357.39,35.07 357.40,35.07 357.99,34.73 "/><path d="M357.46,32.46 C356.73,32.16 356.73,32.16 355.98,31.90 C355.04,31.71 355.03,31.72 354.08,31.56 C353.04,31.51 353.04,31.51 352.00,31.49 C350.98,31.58 350.98,31.58 349.97,31.70 C349.11,31.91 349.11,31.91 348.26,32.15 "/><path d="M348.26,32.15 C349.02,32.38 349.02,32.38 349.79,32.57 C350.48,32.60 350.48,32.60 351.17,32.60 C351.86,32.46 351.86,32.46 352.55,32.29 C353.32,31.94 353.32,31.94 354.08,31.56 "/><path d="M354.08,31.56 C354.63,32.07 354.64,32.07 355.21,32.56 C355.70,32.85 355.71,32.85 356.22,33.11 C356.71,33.23 356.72,33.23 357.22,33.32 "/><path d="M342.46,32.28 L341.73,33.59 L342.17,34.93 "/><path d="M361.80,35.85 L363.09,34.60 L363.24,33.26 L362.23,31.97 "/><path d="M341.82,32.82 L341.04,34.22 L341.51,35.64 "/><path d="M362.39,36.63 L363.77,35.29 L363.92,33.87 L363.91,37.90 "/><path d="M341.04,34.22 L341.08,37.91 "/><path d="M346.57,33.83 L346.70,34.35 L347.11,34.34 L347.48,34.00 L347.85,33.30 L348.26,32.15 L347.05,32.80 L346.51,33.56 L346.57,33.83 "/><path d="M346.70,34.35 L347.58,35.07 "/><path d="M357.99,34.73 L358.53,33.96 L358.35,33.17 L357.46,32.46 "/><path d="M348.26,32.15 L348.26,35.33 "/><path d="M357.22,33.32 L358.35,33.17 L357.94,34.33 L357.62,34.93 "/><path d="M354.08,35.93 L354.08,31.56 "/><path d="M362.23,31.97 L362.85,32.50 L363.92,33.87 "/></g></g><g id="Actor_29.0"><g style="stroke:#000020;stroke-width:0.353"><path d="M330.75,43.72 C329.78,42.28 329.77,42.26 328.74,40.86 C327.64,39.87 327.61,39.88 326.47,38.92 C326.08,38.70 326.07,38.71 325.67,38.49 C324.98,38.12 324.98,38.11 324.29,37.74 C323.65,37.46 323.65,37.47 323.00,37.20 C322.66,37.09 322.66,37.09 322.32,37.00 "/><path d="M324.90,39.78 C324.18,40.25 324.17,40.25 323.42,40.68 C322.65,40.88 322.64,40.86 321.86,41.05 C321.46,41.14 321.46,41.15 321.06,41.24 C319.67,41.31 319.67,41.32 318.29,41.36 C316.97,41.20 316.96,41.21 315.65,41.01 C314.66,40.66 314.65,40.66 313.68,40.26 "/><path d="M314.55,37.33 C313.95,37.58 313.94,37.58 313.35,37.85 C312.09,38.66 312.08,38.65 310.85,39.49 C309.85,40.39 309.84,40.39 308.88,41.32 C308.03,42.50 308.02,42.51 307.22,43.72 "/><path d="M308.38,46.47 C309.45,47.06 309.46,47.07 310.57,47.61 C312.06,48.05 312.07,48.05 313.58,48.44 C315.35,48.68 315.35,48.68 317.12,48.87 C318.98,48.89 318.99,48.89 320.85,48.87 C322.62,48.68 322.63,48.68 324.39,48.44 C325.90,48.05 325.91,48.05 327.41,47.61 C328.51,47.07 328.52,47.06 329.60,46.47 "/><path d="M308.38,47.43 C309.45,48.02 309.46,48.03 310.57,48.57 C312.06,49.01 312.07,49.01 313.58,49.40 C315.35,49.64 315.35,49.64 317.12,49.83 C318.98,49.85 318.99,49.85 320.85,49.83 C322.62,49.64 322.63,49.64 324.39,49.40 C325.90,49.01 325.91,49.01 327.41,48.57 C328.51,48.03 328.52,48.02 329.60,47.43 "/><path d="M322.75,38.65 C322.34,38.58 322.34,38.58 321.94,38.48 C321.53,38.27 321.53,38.27 321.14,38.04 C320.68,37.65 320.68,37.65 320.24,37.24 "/><path d="M320.24,37.24 C319.63,37.54 319.63,37.54 319.01,37.82 C318.46,37.96 318.46,37.96 317.91,38.07 C317.36,38.07 317.35,38.07 316.80,38.05 C316.19,37.89 316.18,37.89 315.57,37.71 "/><path d="M315.03,40.05 C315.62,40.28 315.62,40.28 316.22,40.50 C316.97,40.64 316.98,40.64 317.74,40.76 C318.57,40.80 318.57,40.80 319.41,40.82 C320.22,40.75 320.22,40.75 321.03,40.65 C321.71,40.48 321.72,40.49 322.40,40.29 C322.88,40.05 322.89,40.04 323.36,39.77 "/><path d="M322.94,37.96 C322.35,37.72 322.35,37.72 321.75,37.51 C321.00,37.36 321.00,37.36 320.24,37.24 C319.40,37.20 319.40,37.20 318.57,37.19 C317.76,37.26 317.75,37.26 316.95,37.35 C316.26,37.52 316.26,37.52 315.57,37.71 "/><path d="M322.32,37.00 L324.29,37.74 L325.22,38.74 L324.90,39.78 "/><path d="M313.68,40.26 L312.84,39.36 L312.76,39.27 L313.07,38.22 L314.55,37.33 "/><path d="M307.22,43.72 L307.22,45.13 L308.38,46.47 "/><path d="M329.60,46.47 L330.08,45.91 L330.75,45.13 L330.75,43.72 L330.75,44.95 "/><path d="M307.22,45.13 L307.22,46.09 L307.22,45.95 "/><path d="M307.22,46.09 L308.38,47.43 "/><path d="M329.60,47.43 L330.75,46.09 L330.75,45.13 "/><path d="M307.22,45.91 L307.22,44.32 "/><path d="M323.06,39.93 L323.32,39.45 L323.65,38.53 L322.75,38.65 "/><path d="M315.57,37.71 L314.61,38.23 L314.18,38.84 L314.33,39.47 L314.66,39.47 L314.95,39.19 L315.25,38.63 L315.57,37.71 L315.57,40.25 "/><path d="M314.33,39.47 L315.03,40.05 "/><path d="M323.36,39.77 L323.79,39.16 L323.65,38.53 L322.94,37.96 "/><path d="M316.38,36.89 L314.55,37.33 L315.31,37.11 L316.92,36.77 L316.38,36.89 "/><path d="M316.92,36.77 L319.69,36.65 L322.32,37.00 "/><path d="M320.24,40.73 L320.24,37.24 "/><path d="M330.75,44.68 L330.75,45.11 "/></g></g><g id="Actor_30.1"><g style="stroke:#000020;stroke-width:0.353"><path d="M346.91,59.27 C347.72,59.92 347.73,59.93 348.57,60.55 C349.17,60.84 349.18,60.83 349.80,61.10 C350.52,61.34 350.52,61.34 351.24,61.56 C352.94,61.89 352.94,61.90 354.64,62.19 C356.52,62.30 356.52,62.30 358.40,62.37 C360.25,62.24 360.25,62.24 362.10,62.07 C363.73,61.73 363.73,61.73 365.35,61.34 C366.58,60.82 366.59,60.82 367.79,60.25 "/><path d="M367.20,59.48 C366.07,60.01 366.06,60.02 364.90,60.50 C363.39,60.87 363.38,60.87 361.85,61.19 C360.11,61.35 360.11,61.35 358.37,61.47 C356.60,61.40 356.60,61.41 354.84,61.30 C353.24,61.03 353.24,61.02 351.64,60.71 C350.96,60.50 350.96,60.50 350.28,60.27 C349.70,60.02 349.70,60.03 349.13,59.76 C348.34,59.17 348.34,59.17 347.57,58.55 "/><path d="M347.86,55.90 C348.75,55.30 348.76,55.30 349.68,54.75 C351.02,54.29 351.03,54.29 352.39,53.88 C354.04,53.61 354.05,53.61 355.70,53.39 C357.48,53.34 357.48,53.34 359.26,53.34 C360.96,53.51 360.97,53.51 362.67,53.72 C364.12,54.09 364.12,54.08 365.56,54.50 C366.60,55.02 366.61,55.02 367.63,55.60 "/><path d="M359.48,55.19 C360.43,55.35 360.43,55.35 361.38,55.52 C361.45,55.54 361.45,55.55 361.51,55.57 C362.19,55.83 362.19,55.83 362.86,56.08 "/><path d="M363.39,58.35 C362.80,58.69 362.79,58.69 362.19,59.00 C361.34,59.24 361.33,59.24 360.47,59.45 C359.46,59.57 359.46,59.57 358.45,59.66 C357.40,59.64 357.40,59.64 356.36,59.59 C355.69,59.48 355.69,59.47 355.02,59.35 C354.74,59.30 354.74,59.31 354.46,59.25 C353.72,58.98 353.72,58.98 352.98,58.69 "/><path d="M352.46,56.42 C353.04,56.09 353.05,56.08 353.66,55.78 C354.51,55.53 354.51,55.53 355.37,55.32 C356.38,55.21 356.38,55.21 357.40,55.12 C358.44,55.14 358.44,55.14 359.48,55.19 "/><path d="M359.48,55.19 C358.72,55.56 358.72,55.57 357.95,55.91 C357.26,56.09 357.26,56.09 356.57,56.23 C355.88,56.23 355.88,56.23 355.19,56.19 C354.42,56.00 354.42,56.00 353.66,55.78 "/><path d="M359.48,55.19 C360.03,55.69 360.04,55.70 360.61,56.18 C361.10,56.47 361.11,56.48 361.62,56.74 C362.11,56.86 362.12,56.86 362.62,56.94 "/><path d="M346.44,57.85 L346.91,59.27 "/><path d="M367.79,60.25 L369.17,58.92 L369.33,57.49 L368.25,56.12 L367.63,55.60 L368.64,56.88 L368.49,58.23 L367.20,59.48 "/><path d="M347.57,58.55 L347.13,57.22 L347.86,55.90 L347.22,56.45 L346.44,57.85 L346.48,61.50 "/><path d="M359.48,59.55 L359.48,55.19 "/><path d="M362.86,56.08 L363.75,56.80 L363.93,57.59 L363.39,58.35 "/><path d="M352.98,58.69 L352.10,57.98 L351.91,57.19 L352.46,56.42 "/><path d="M353.66,55.78 L353.66,58.95 "/><path d="M353.66,55.78 L353.25,56.93 L352.88,57.62 L352.51,57.97 L352.10,57.98 L352.10,57.99 "/><path d="M362.62,56.94 L363.75,56.80 L363.34,57.95 L363.02,58.55 "/><path d="M369.33,57.49 L369.31,61.56 "/></g></g><g id="Actor_29.1"><g style="stroke:#000020;stroke-width:0.353"><path d="M308.83,70.97 C309.91,71.57 309.92,71.57 311.02,72.11 C312.52,72.55 312.52,72.55 314.04,72.94 C315.80,73.18 315.81,73.18 317.58,73.37 C319.44,73.40 319.44,73.40 321.30,73.37 C323.08,73.18 323.08,73.18 324.85,72.94 C326.36,72.55 326.37,72.55 327.86,72.11 C328.97,71.57 328.98,71.57 330.05,70.97 "/><path d="M331.20,68.23 C330.24,66.78 330.23,66.77 329.20,65.37 C328.09,64.37 328.07,64.38 326.92,63.42 C326.53,63.20 326.52,63.21 326.12,63.00 C325.43,62.62 325.43,62.62 324.75,62.24 "/><path d="M325.36,64.29 C324.64,64.75 324.63,64.76 323.87,65.18 C322.71,65.49 322.70,65.48 321.51,65.74 C320.13,65.82 320.12,65.82 318.74,65.86 C317.42,65.71 317.42,65.71 316.11,65.51 C315.12,65.16 315.11,65.16 314.13,64.76 "/><path d="M317.37,61.27 C316.57,61.44 316.57,61.44 315.76,61.62 C315.38,61.72 315.38,61.72 315.01,61.83 C314.40,62.09 314.40,62.08 313.80,62.36 C312.55,63.16 312.54,63.15 311.31,63.99 C310.31,64.89 310.30,64.89 309.33,65.83 C308.48,67.00 308.48,67.01 307.68,68.23 "/><path d="M308.83,71.93 C309.91,72.52 309.92,72.53 311.02,73.07 C312.52,73.51 312.52,73.51 314.04,73.90 C315.80,74.14 315.81,74.14 317.58,74.33 C319.44,74.35 319.44,74.35 321.30,74.33 C323.08,74.14 323.08,74.14 324.85,73.90 C326.36,73.51 326.37,73.51 327.86,73.07 C328.97,72.53 328.98,72.52 330.05,71.93 "/><path d="M315.07,62.73 C315.54,62.46 315.54,62.46 316.03,62.21 C316.71,62.02 316.71,62.02 317.40,61.85 C318.21,61.76 318.21,61.76 319.02,61.69 C319.86,61.70 319.86,61.70 320.69,61.74 "/><path d="M320.69,61.74 C320.08,62.04 320.08,62.05 319.46,62.32 C318.92,62.46 318.91,62.46 318.36,62.58 C317.81,62.58 317.81,62.58 317.26,62.55 C316.64,62.40 316.64,62.39 316.03,62.21 "/><path d="M315.49,64.55 C316.08,64.78 316.08,64.79 316.67,65.00 C317.43,65.14 317.43,65.14 318.19,65.26 C319.03,65.30 319.03,65.30 319.86,65.32 C320.67,65.25 320.67,65.25 321.48,65.16 C322.17,64.99 322.17,64.99 322.85,64.79 C323.34,64.55 323.34,64.54 323.82,64.27 "/><path d="M317.37,61.27 C318.75,61.19 318.76,61.19 320.14,61.15 C321.46,61.30 321.47,61.30 322.78,61.50 C323.77,61.84 323.78,61.85 324.75,62.24 "/><path d="M320.69,61.74 C321.13,62.15 321.13,62.15 321.59,62.54 C321.99,62.77 321.99,62.78 322.40,62.98 C322.79,63.08 322.80,63.08 323.20,63.15 "/><path d="M308.05,70.07 L308.83,70.97 "/><path d="M330.05,70.97 L330.87,70.03 L331.20,69.63 L331.20,68.23 "/><path d="M324.75,62.24 L325.67,63.24 L325.36,64.29 "/><path d="M314.13,64.76 L313.21,63.77 L313.53,62.72 L313.96,62.46 L315.01,61.83 L317.37,61.27 "/><path d="M307.68,68.23 L307.68,69.63 L308.05,70.07 "/><path d="M307.68,70.45 L307.68,70.59 L307.68,69.63 "/><path d="M307.68,70.59 L308.83,71.93 "/><path d="M330.05,71.93 L331.20,70.59 L331.20,69.63 "/><path d="M307.68,70.07 L307.68,68.82 "/><path d="M314.78,63.98 L314.63,63.34 L315.07,62.73 "/><path d="M316.03,62.21 L315.70,63.14 L315.41,63.69 L315.11,63.97 L314.78,63.98 L315.49,64.55 "/><path d="M323.82,64.27 L324.25,63.66 L324.10,63.03 L323.77,63.95 L323.52,64.43 "/><path d="M316.03,62.21 L316.03,64.75 "/><path d="M324.75,62.24 L323.46,61.70 L322.78,61.50 "/><path d="M320.69,65.24 L320.69,61.74 "/><path d="M323.20,63.15 L324.10,63.03 L323.39,62.46 L322.21,62.01 L320.69,61.74 "/><path d="M331.20,68.23 L331.20,69.45 "/><path d="M331.20,69.18 L331.20,69.61 "/></g></g><g id="Actor_31.1"><g style="stroke:#000020;stroke-width:0.353"><path d="M381.47,47.55 C382.54,48.15 382.55,48.15 383.66,48.69 C385.15,49.13 385.16,49.13 386.67,49.52 C388.44,49.76 388.44,49.76 390.21,49.95 C392.07,49.98 392.08,49.98 393.94,49.95 C395.71,49.76 395.72,49.76 397.48,49.52 C398.99,49.13 399.00,49.13 400.50,48.69 C401.60,48.15 401.61,48.15 402.69,47.55 "/><path d="M402.69,46.60 C401.61,47.19 401.60,47.19 400.50,47.74 C399.00,48.18 398.99,48.17 397.48,48.56 C395.72,48.80 395.71,48.80 393.94,49.00 C392.08,49.02 392.07,49.02 390.21,49.00 C388.44,48.80 388.44,48.80 386.67,48.56 C385.16,48.17 385.15,48.18 383.66,47.74 C382.55,47.19 382.54,47.19 381.47,46.60 "/><path d="M380.31,43.85 C381.11,42.64 381.12,42.63 381.97,41.45 C382.93,40.51 382.94,40.51 383.94,39.61 C385.17,38.78 385.18,38.78 386.44,37.98 C387.03,37.70 387.04,37.70 387.64,37.45 "/><path d="M386.77,40.39 C387.74,40.78 387.75,40.79 388.74,41.13 C390.05,41.33 390.06,41.33 391.37,41.48 C392.76,41.44 392.76,41.45 394.15,41.36 C395.33,41.11 395.34,41.11 396.51,40.80 C397.26,40.38 397.27,40.38 397.99,39.91 "/><path d="M395.41,37.12 C395.75,37.22 395.75,37.22 396.09,37.32 C396.74,37.59 396.74,37.59 397.38,37.87 C398.07,38.24 398.07,38.24 398.76,38.62 C399.16,38.83 399.16,38.83 399.56,39.05 "/><path d="M387.70,38.36 C388.17,38.09 388.18,38.08 388.66,37.84 C389.34,37.64 389.35,37.64 390.04,37.47 C390.84,37.38 390.85,37.38 391.66,37.31 C392.49,37.33 392.49,37.33 393.33,37.37 "/><path d="M393.33,37.37 C392.72,37.67 392.71,37.67 392.10,37.95 C391.55,38.09 391.55,38.09 390.99,38.20 C390.45,38.20 390.44,38.20 389.89,38.17 C389.28,38.02 389.27,38.02 388.66,37.84 "/><path d="M388.12,40.17 C388.71,40.41 388.71,40.41 389.31,40.62 C390.06,40.77 390.07,40.77 390.83,40.89 C391.66,40.93 391.66,40.93 392.50,40.94 C393.31,40.87 393.31,40.87 394.12,40.78 C394.80,40.61 394.81,40.61 395.49,40.42 C395.97,40.17 395.98,40.17 396.45,39.90 "/><path d="M393.33,37.37 C393.77,37.77 393.77,37.77 394.23,38.16 C394.62,38.39 394.62,38.40 395.03,38.61 C395.43,38.70 395.43,38.70 395.84,38.77 "/><path d="M381.47,46.60 L380.31,45.26 L380.31,46.21 L381.47,47.55 "/><path d="M402.69,47.55 L403.84,46.21 L403.84,45.26 L402.69,46.60 "/><path d="M380.31,45.91 L380.31,44.55 L380.31,45.91 "/><path d="M380.31,45.26 L380.31,43.85 "/><path d="M387.64,37.45 L386.16,38.34 L385.85,39.39 L386.77,40.39 "/><path d="M397.99,39.91 L398.31,38.86 L397.38,37.87 L395.41,37.12 "/><path d="M399.56,39.05 L401.83,40.99 L403.84,43.85 L403.84,45.26 "/><path d="M388.66,37.84 L388.34,38.76 L388.04,39.32 L387.74,39.59 L387.42,39.60 L387.27,38.97 L387.70,38.36 "/><path d="M388.66,37.84 L388.66,40.38 "/><path d="M387.42,39.60 L388.12,40.17 "/><path d="M396.45,39.90 L396.88,39.29 L396.74,38.66 L396.41,39.58 L396.15,40.06 "/><path d="M388.40,37.24 L387.64,37.45 L390.01,36.89 L388.40,37.24 "/><path d="M390.01,36.89 L392.78,36.77 L395.41,37.12 "/><path d="M393.33,40.86 L393.33,37.37 L394.84,37.63 L396.03,38.08 L396.74,38.66 "/><path d="M395.84,38.77 L396.74,38.65 "/><path d="M403.84,44.88 L403.84,43.85 "/></g></g><g id="Actor_34.0"><g style="stroke:#000020;stroke-width:0.353"><path d="M298.11,67.25 C298.52,66.11 298.52,66.10 298.87,64.94 C298.95,63.78 298.95,63.77 298.97,62.61 C298.71,61.45 298.71,61.44 298.39,60.29 "/><path d="M292.03,54.64 C291.02,55.87 291.01,55.88 290.06,57.16 C289.41,58.57 289.40,58.58 288.82,60.03 C288.57,61.53 288.57,61.54 288.40,63.05 "/><path d="M291.78,71.66 C291.91,70.36 291.91,70.35 292.09,69.06 C292.52,67.80 292.52,67.79 293.01,66.55 C293.72,65.40 293.74,65.40 294.49,64.27 C294.94,63.75 294.94,63.75 295.41,63.25 "/><path d="M295.41,63.25 C295.45,63.33 295.45,63.33 295.48,63.42 C295.71,64.36 295.73,64.36 295.94,65.29 C295.96,66.23 295.96,66.24 295.94,67.17 C295.73,68.11 295.72,68.11 295.48,69.04 C295.32,69.45 295.32,69.45 295.14,69.84 "/><path d="M298.46,71.05 C299.31,71.97 299.32,71.98 300.22,72.85 C301.56,73.68 301.57,73.68 302.95,74.46 C304.72,75.16 304.72,75.16 306.51,75.81 C308.63,76.36 308.64,76.34 310.76,76.85 C311.15,76.91 311.15,76.91 311.55,76.96 C313.52,77.25 313.52,77.26 315.49,77.53 C317.99,77.69 318.00,77.69 320.50,77.81 C323.02,77.77 323.02,77.77 325.55,77.68 "/><path d="M326.07,81.60 C326.94,81.51 326.94,81.51 327.80,81.41 C328.61,81.26 328.61,81.26 329.41,81.10 C330.11,80.89 330.11,80.89 330.81,80.67 "/><path d="M330.81,80.67 C331.54,82.12 331.54,82.12 332.22,83.60 C332.69,85.16 332.69,85.16 333.10,86.74 C333.28,88.29 333.28,88.29 333.41,89.85 C333.43,107.95 333.43,144.16 333.41,126.06 "/><path d="M333.41,126.06 C332.42,126.37 332.42,126.37 331.42,126.67 C330.29,126.90 330.29,126.90 329.16,127.11 C327.93,127.25 327.93,127.25 326.69,127.37 "/><path d="M326.69,91.17 C324.88,91.26 324.88,91.26 323.07,91.32 C321.24,91.33 321.24,91.33 319.41,91.31 C317.60,91.23 317.60,91.23 315.79,91.14 C314.02,90.98 314.02,90.98 312.25,90.80 C310.55,90.56 310.54,90.56 308.84,90.30 C307.23,89.99 307.23,89.99 305.62,89.66 C304.12,89.27 304.11,89.27 302.62,88.87 C301.25,88.42 301.25,88.42 299.89,87.95 C298.68,87.44 298.68,87.44 297.48,86.91 C296.44,86.36 296.44,86.36 295.41,85.78 C294.56,85.18 294.56,85.18 293.73,84.56 C293.07,83.93 293.06,83.92 292.42,83.26 C291.97,82.61 291.97,82.60 291.55,81.92 C291.31,81.25 291.31,81.24 291.10,80.55 C291.09,80.15 291.09,80.15 291.10,79.73 "/><path d="M292.71,119.80 C293.97,120.87 293.97,120.88 295.28,121.90 C297.07,122.86 297.08,122.86 298.91,123.76 C301.17,124.57 301.17,124.56 303.45,125.31 C306.08,125.93 306.09,125.92 308.73,126.49 C311.62,126.89 311.62,126.89 314.52,127.24 C317.55,127.41 317.55,127.41 320.59,127.54 C323.64,127.48 323.64,127.48 326.69,127.37 "/><path d="M288.40,64.44 C288.36,64.32 288.36,64.32 288.33,64.21 C288.29,63.98 288.29,63.97 288.27,63.74 C288.26,63.05 288.25,63.05 288.27,62.36 C288.47,60.86 288.44,60.84 288.69,59.36 C289.28,57.95 289.29,57.93 289.95,56.56 C290.91,55.33 290.93,55.34 291.94,54.15 C293.43,52.74 293.43,52.74 294.95,51.36 "/><path d="M289.12,50.74 C289.17,50.59 289.17,50.59 289.22,50.45 C289.79,49.47 289.78,49.46 290.38,48.50 C291.14,47.65 291.17,47.67 291.94,46.82 C292.09,46.54 292.08,46.53 292.23,46.24 C292.36,46.07 292.36,46.07 292.51,45.91 "/><path d="M292.51,45.91 C291.79,46.60 291.79,46.60 291.08,47.30 C290.86,47.56 290.86,47.56 290.65,47.84 C290.04,48.79 290.03,48.79 289.45,49.75 C289.27,50.24 289.27,50.24 289.12,50.74 "/><path d="M291.10,79.17 C291.25,77.80 291.25,77.79 291.44,76.42 C291.62,75.83 291.64,75.83 291.84,75.24 C292.29,74.05 292.27,74.03 292.75,72.85 C293.46,71.79 293.47,71.79 294.22,70.75 C294.67,70.29 294.67,70.28 295.14,69.84 "/><path d="M294.78,72.33 C295.02,73.05 295.03,73.06 295.31,73.76 C295.82,74.46 295.83,74.46 296.38,75.14 C297.15,75.81 297.15,75.81 297.95,76.46 C298.97,77.08 298.97,77.08 300.01,77.67 C301.24,78.23 301.25,78.23 302.50,78.76 C303.93,79.25 303.93,79.25 305.37,79.71 C306.97,80.12 306.98,80.11 308.58,80.50 C310.31,80.81 310.31,80.81 312.05,81.10 C313.88,81.31 313.88,81.31 315.71,81.51 C317.59,81.62 317.60,81.62 319.48,81.72 C321.39,81.73 321.39,81.73 323.30,81.72 C324.68,81.67 324.68,81.67 326.07,81.60 "/><path d="M326.07,81.60 C326.20,82.77 326.20,82.77 326.33,83.94 C326.43,85.15 326.43,85.15 326.53,86.37 C326.60,87.59 326.60,87.59 326.65,88.82 C326.68,89.99 326.68,89.99 326.69,91.17 "/><path d="M326.69,91.17 C327.93,91.05 327.93,91.05 329.16,90.91 C330.29,90.70 330.29,90.70 331.43,90.46 C332.42,90.17 332.42,90.17 333.41,89.85 C342.98,86.25 342.99,86.25 352.56,82.62 "/><path d="M369.51,115.72 C368.28,115.87 368.27,115.87 367.04,116.00 C365.75,116.01 365.75,116.01 364.46,115.99 C363.24,115.85 363.24,115.85 362.02,115.68 C360.98,115.41 360.98,115.41 359.94,115.11 C353.74,112.78 353.74,112.78 347.54,110.42 "/><path d="M296.68,42.93 C319.70,34.22 319.70,34.22 342.72,25.53 C343.30,25.35 343.31,25.35 343.89,25.18 C344.57,25.06 344.57,25.06 345.26,24.96 C345.99,24.91 345.99,24.91 346.73,24.87 C347.47,24.90 347.47,24.89 348.21,24.93 C350.90,25.20 350.90,25.20 353.58,25.49 C356.19,25.85 356.19,25.85 358.79,26.23 C361.31,26.67 361.31,26.67 363.82,27.13 C378.95,30.17 378.95,30.18 394.09,33.23 C394.57,33.35 394.57,33.34 395.04,33.47 C422.20,43.72 422.21,43.71 449.36,53.98 C450.10,54.32 450.10,54.32 450.82,54.69 C451.31,55.09 451.31,55.09 451.77,55.52 "/><path d="M451.98,57.23 C451.76,57.53 451.76,57.54 451.52,57.83 C451.24,58.07 451.24,58.07 450.95,58.29 C450.16,58.70 450.16,58.70 449.36,59.09 "/><path d="M449.36,59.09 C438.48,63.23 438.47,63.23 427.58,67.32 C426.37,67.67 426.37,67.67 425.16,67.99 C423.74,68.18 423.73,68.18 422.31,68.34 C420.81,68.35 420.81,68.35 419.32,68.34 C417.89,68.18 417.89,68.18 416.47,67.99 C415.26,67.67 415.25,67.67 414.05,67.32 C410.96,66.17 410.97,66.14 407.87,64.99 C406.09,64.43 406.09,64.42 404.30,63.89 C402.27,63.47 402.26,63.48 400.22,63.10 C398.00,62.85 398.00,62.85 395.78,62.63 C393.52,62.56 393.51,62.56 391.25,62.52 C388.94,62.63 388.94,62.63 386.64,62.77 C384.47,63.05 384.47,63.05 382.31,63.36 C365.47,66.43 365.40,66.22 348.63,69.53 C338.60,73.07 338.65,73.31 328.68,77.07 C328.22,77.22 328.22,77.22 327.76,77.35 C327.23,77.46 327.23,77.46 326.70,77.56 C326.12,77.63 326.12,77.63 325.55,77.68 "/><path d="M339.11,33.02 C340.07,32.29 340.08,32.28 341.09,31.60 C342.57,31.01 342.58,31.01 344.08,30.47 C345.95,30.07 345.95,30.07 347.83,29.72 C349.91,29.55 349.91,29.55 351.99,29.43 C354.09,29.49 354.10,29.49 356.20,29.61 C358.14,29.90 358.15,29.90 360.08,30.25 C361.69,30.74 361.70,30.74 363.29,31.29 C364.43,31.94 364.44,31.94 365.54,32.64 "/><path d="M365.08,37.30 C363.84,37.97 363.84,37.97 362.57,38.59 C360.88,39.09 360.87,39.09 359.16,39.54 C357.17,39.83 357.16,39.83 355.16,40.07 C353.05,40.12 353.05,40.12 350.93,40.13 C348.89,39.94 348.88,39.94 346.84,39.71 C345.04,39.31 345.04,39.31 343.25,38.86 C341.88,38.29 341.88,38.29 340.53,37.66 "/><path d="M344.90,56.27 C346.00,55.57 346.01,55.56 347.15,54.91 C348.74,54.36 348.75,54.37 350.36,53.87 C352.30,53.52 352.30,53.53 354.24,53.23 C356.35,53.12 356.35,53.12 358.45,53.05 C360.53,53.18 360.54,53.18 362.61,53.35 C364.49,53.70 364.50,53.70 366.36,54.10 C367.86,54.63 367.87,54.63 369.35,55.23 C370.36,55.90 370.37,55.91 371.33,56.64 "/><path d="M371.65,59.81 C370.83,60.56 370.82,60.57 369.95,61.27 C368.59,61.91 368.58,61.91 367.19,62.48 C365.41,62.94 365.40,62.94 363.60,63.34 C361.56,63.57 361.56,63.57 359.51,63.75 C357.40,63.74 357.39,63.74 355.28,63.69 C353.28,63.45 353.28,63.45 351.28,63.16 C349.57,62.71 349.57,62.72 347.88,62.21 C346.61,61.60 346.60,61.59 345.36,60.92 "/><path d="M352.56,82.62 C352.45,81.05 352.45,81.04 352.30,79.48 C351.96,77.88 351.96,77.88 351.57,76.29 C351.01,74.77 351.00,74.77 350.40,73.26 "/><path d="M383.63,67.18 C383.84,67.82 383.84,67.82 384.04,68.47 C384.37,69.82 384.38,69.82 384.69,71.17 C384.90,72.56 384.90,72.56 385.09,73.94 C385.18,75.29 385.18,75.29 385.23,76.63 "/><path d="M385.23,76.63 C386.36,76.46 386.36,76.46 387.48,76.30 C388.66,76.19 388.66,76.19 389.85,76.10 C391.05,76.06 391.05,76.06 392.26,76.04 C393.47,76.07 393.47,76.07 394.67,76.12 C395.85,76.23 395.85,76.23 397.02,76.34 C398.14,76.51 398.14,76.51 399.25,76.70 C400.28,76.93 400.28,76.93 401.31,77.18 C402.23,77.47 402.23,77.47 403.15,77.77 C406.24,78.93 406.24,78.93 409.32,80.11 "/><path d="M409.32,87.68 C406.24,86.50 406.24,86.50 403.15,85.35 C401.63,84.88 401.63,84.88 400.10,84.45 C398.33,84.13 398.33,84.14 396.56,83.86 C394.65,83.72 394.65,83.72 392.75,83.62 C390.82,83.66 390.82,83.66 388.89,83.73 C387.06,83.95 387.06,83.95 385.23,84.21 "/><path d="M403.15,85.35 C403.13,81.56 403.13,81.56 403.15,77.77 C403.22,76.61 403.22,76.61 403.32,75.44 C403.55,74.26 403.55,74.26 403.82,73.08 C404.22,71.91 404.22,71.91 404.64,70.76 C405.17,69.67 405.18,69.67 405.74,68.60 "/><path d="M405.74,68.60 C404.61,68.21 404.61,68.21 403.47,67.85 C402.21,67.54 402.21,67.55 400.93,67.26 C399.56,67.03 399.56,67.03 398.18,66.82 C396.73,66.67 396.73,66.67 395.28,66.55 C393.79,66.49 393.79,66.49 392.31,66.45 C390.82,66.47 390.82,66.47 389.33,66.52 C387.87,66.63 387.87,66.63 386.42,66.76 C385.02,66.96 385.02,66.96 383.63,67.18 "/><path d="M384.59,112.95 C385.77,112.72 385.77,112.72 386.94,112.47 C388.06,112.20 388.06,112.20 389.18,111.92 C390.23,111.62 390.24,111.63 391.28,111.30 C391.76,111.05 391.76,111.04 392.23,110.76 "/><path d="M411.92,70.92 C411.35,72.00 411.35,72.00 410.82,73.09 C410.39,74.24 410.39,74.25 410.00,75.41 C409.73,76.59 409.73,76.59 409.49,77.78 C409.39,78.94 409.39,78.94 409.32,80.11 "/><path d="M409.32,80.11 C410.46,80.47 410.46,80.48 411.60,80.82 C412.77,81.09 412.77,81.09 413.95,81.33 C415.71,81.56 415.71,81.57 417.48,81.77 C419.14,81.85 419.15,81.85 420.81,81.90 C422.66,81.84 422.66,81.84 424.51,81.74 C426.09,81.55 426.09,81.55 427.67,81.33 C428.84,81.09 428.84,81.09 430.02,80.82 C431.16,80.48 431.16,80.48 432.30,80.11 "/><path d="M432.30,87.68 C431.16,88.05 431.16,88.05 430.01,88.40 C428.64,88.70 428.64,88.70 427.26,88.97 C425.70,89.17 425.70,89.17 424.14,89.35 C422.47,89.42 422.47,89.42 420.81,89.48 C419.14,89.43 419.14,89.43 417.48,89.35 C415.92,89.17 415.92,89.17 414.36,88.97 C412.98,88.70 412.98,88.70 411.60,88.40 C410.46,88.05 410.46,88.05 409.32,87.68 "/><path d="M411.92,70.92 C412.87,71.22 412.87,71.22 413.82,71.51 C414.91,71.74 414.91,71.74 416.00,71.95 C417.18,72.09 417.18,72.09 418.36,72.22 C419.58,72.27 419.59,72.27 420.81,72.31 C422.04,72.27 422.04,72.27 423.27,72.22 C424.45,72.09 424.45,72.09 425.63,71.95 C426.72,71.74 426.72,71.74 427.80,71.51 C428.76,71.22 428.76,71.22 429.71,70.92 "/><path d="M429.71,70.92 C430.27,72.00 430.27,72.00 430.81,73.09 C431.23,74.24 431.24,74.25 431.63,75.41 C431.90,76.59 431.90,76.59 432.13,77.78 C432.24,78.94 432.24,78.94 432.30,80.11 "/><path d="M454.09,79.45 C455.04,79.03 455.05,79.03 455.99,78.58 C456.76,78.08 456.77,78.08 457.51,77.54 C458.02,76.97 458.03,76.96 458.50,76.36 "/><path d="M454.21,57.51 C454.93,58.27 454.94,58.27 455.65,59.04 C456.05,59.54 456.06,59.54 456.45,60.05 C457.03,61.00 457.04,61.00 457.59,61.98 C457.96,63.02 457.94,63.03 458.29,64.09 C458.45,64.68 458.46,64.68 458.60,65.27 C458.73,66.40 458.73,66.40 458.85,67.53 "/><path d="M458.49,68.79 C458.01,69.39 458.01,69.40 457.49,69.97 C456.64,70.57 456.63,70.56 455.76,71.13 C455.31,71.35 455.31,71.35 454.86,71.56 C454.47,71.72 454.47,71.72 454.09,71.88 "/><path d="M454.09,71.88 C454.02,70.71 454.02,70.71 453.92,69.55 C453.68,68.36 453.68,68.36 453.41,67.18 C453.02,66.02 453.02,66.01 452.59,64.86 C452.06,63.77 452.06,63.77 451.49,62.69 "/><path d="M451.49,62.69 C452.35,62.30 452.35,62.30 453.19,61.88 C453.70,61.53 453.71,61.52 454.20,61.14 C454.57,60.71 454.58,60.71 454.92,60.25 "/><path d="M292.27,74.02 L292.22,73.19 L291.78,71.66 L291.78,73.04 L288.40,64.44 L288.40,63.05 L288.33,62.82 L288.27,62.36 L288.27,55.57 L288.27,55.88 "/><path d="M298.39,60.29 L295.41,63.25 L292.03,54.64 "/><path d="M288.40,63.05 L291.78,71.66 "/><path d="M295.14,69.84 L298.11,67.25 L297.75,69.16 L298.46,71.05 "/><path d="M325.55,77.68 L326.07,81.60 "/><path d="M326.69,127.37 L326.69,91.17 "/><path d="M291.10,79.73 L291.12,115.23 L291.31,117.55 L292.71,119.80 "/><path d="M294.95,51.36 L295.02,51.69 L298.39,60.29 "/><path d="M288.27,55.05 L288.27,54.84 L288.27,55.57 "/><path d="M288.27,54.84 L288.51,52.59 L289.12,50.74 L288.69,51.91 L288.51,52.59 "/><path d="M291.10,79.73 L291.11,79.12 "/><path d="M295.14,69.84 L294.79,70.89 L294.78,72.33 "/><path d="M352.56,82.62 L352.56,84.00 L369.50,80.90 L369.51,115.72 "/><path d="M291.78,73.04 L292.13,74.47 "/><path d="M292.21,74.26 L292.59,72.74 "/><path d="M295.02,51.69 L292.03,54.64 L291.98,54.48 L291.94,54.15 L291.94,46.82 L294.95,44.50 L294.95,51.36 "/><path d="M292.75,72.85 L293.08,72.09 "/><path d="M292.51,45.91 L292.61,45.79 L295.39,43.65 L294.95,44.50 "/><path d="M295.39,43.65 L296.68,42.93 "/><path d="M451.77,55.52 L452.15,56.40 L451.98,57.23 "/><path d="M328.68,77.07 L330.81,80.67 L350.40,73.26 L348.63,69.53 "/><path d="M345.20,121.60 L346.73,120.80 L347.54,119.86 L347.54,85.89 L345.20,86.78 L345.20,121.60 L333.41,126.06 "/><path d="M340.53,37.66 L338.80,36.18 L338.32,34.59 L339.11,33.02 "/><path d="M365.54,32.64 L366.64,34.19 L366.48,35.79 L365.08,37.30 "/><path d="M340.71,37.74 L340.14,37.08 L340.14,35.60 L341.04,34.55 "/><path d="M344.88,60.40 L343.96,59.41 L343.80,57.81 L344.90,56.27 "/><path d="M371.33,56.64 L372.12,58.22 L371.65,59.81 "/><path d="M345.36,60.92 L344.88,60.40 "/><path d="M347.54,85.89 L352.56,84.00 "/><path d="M346.44,58.17 L345.54,59.22 L345.54,60.70 L346.02,61.26 "/><path d="M350.40,73.26 L383.63,67.18 "/><path d="M385.23,76.63 L352.56,82.62 "/><path d="M359.94,115.11 L359.94,82.65 "/><path d="M364.43,37.64 L364.90,37.08 L364.90,35.60 L363.92,34.46 "/><path d="M369.73,61.37 L370.30,60.70 L370.30,59.22 L369.32,58.08 "/><path d="M369.51,115.72 L384.59,112.95 L384.59,84.32 L385.23,84.21 L385.23,76.63 "/><path d="M409.32,80.11 L409.32,87.68 "/><path d="M383.63,67.18 L382.31,63.36 "/><path d="M392.23,110.76 L392.29,110.12 L392.29,83.63 "/><path d="M391.28,111.30 L391.28,83.66 "/><path d="M407.87,64.99 L405.74,68.60 L411.92,70.92 "/><path d="M432.30,80.11 L432.30,87.68 "/><path d="M414.05,67.32 L411.92,70.92 "/><path d="M429.71,70.92 L427.58,67.32 "/><path d="M449.36,59.09 L451.49,62.69 L429.71,70.92 "/><path d="M432.30,80.11 L454.09,71.88 L454.09,79.45 "/><path d="M458.50,76.36 L458.85,75.11 L458.84,67.50 "/><path d="M434.40,86.89 L434.72,87.19 L434.37,86.90 "/><path d="M434.89,86.70 L438.98,88.25 L438.98,85.15 L432.30,87.68 "/><path d="M438.98,88.90 L445.48,86.45 L447.85,84.90 L438.98,88.25 L438.98,88.90 L434.92,87.37 L434.72,87.19 "/><path d="M447.85,84.90 L447.85,81.81 L454.09,79.45 "/><path d="M458.85,67.53 L458.49,68.79 "/><path d="M454.92,60.25 L455.17,59.32 L454.86,58.28 L454.21,57.51 L450.82,54.69 "/></g></g><g id="Actor_32.0"><g style="stroke:#000020;stroke-width:0.353"><path d="M223.13,125.84 C223.57,126.17 223.57,126.17 223.98,126.52 C224.31,126.97 224.29,126.98 224.60,127.44 C224.64,127.48 224.64,127.48 224.67,127.53 C224.89,128.13 224.89,128.13 225.09,128.73 "/><path d="M214.89,140.88 C214.87,140.67 214.87,140.67 214.85,140.47 C214.84,140.23 214.84,140.23 214.84,140.00 C214.86,139.75 214.86,139.75 214.88,139.51 "/><path d="M214.88,139.51 C214.98,139.61 214.98,139.61 215.08,139.71 C215.22,139.81 215.22,139.81 215.36,139.91 C215.52,140.01 215.52,140.01 215.69,140.10 "/><path d="M215.69,140.10 C215.73,139.80 215.73,139.80 215.78,139.50 C215.85,139.21 215.85,139.21 215.92,138.91 C216.02,138.62 216.02,138.62 216.11,138.32 "/><path d="M217.19,138.74 C217.11,139.04 217.11,139.04 217.03,139.34 C216.97,139.64 216.97,139.64 216.91,139.94 C216.87,140.24 216.87,140.24 216.83,140.54 "/><path d="M216.83,140.54 C217.09,140.61 217.09,140.61 217.35,140.68 C217.62,140.75 217.62,140.75 217.89,140.81 C218.19,140.86 218.19,140.86 218.48,140.91 "/><path d="M218.48,140.91 C218.46,141.16 218.46,141.16 218.44,141.41 C218.44,141.64 218.44,141.65 218.45,141.88 C218.47,142.11 218.47,142.11 218.49,142.34 "/><path d="M218.49,142.34 C218.20,142.31 218.20,142.31 217.91,142.28 C217.64,142.23 217.64,142.23 217.36,142.18 C217.10,142.12 217.10,142.12 216.85,142.06 "/><path d="M216.85,142.06 C216.89,142.32 216.89,142.32 216.94,142.59 C217.00,142.83 217.00,142.83 217.07,143.07 C217.15,143.30 217.15,143.30 217.24,143.52 "/><path d="M217.24,143.52 C217.07,143.47 217.07,143.47 216.90,143.41 C216.72,143.34 216.72,143.35 216.54,143.27 C216.36,143.19 216.36,143.19 216.18,143.10 "/><path d="M216.18,143.10 C216.07,142.87 216.07,142.87 215.97,142.64 C215.89,142.39 215.89,142.39 215.81,142.14 C215.76,141.88 215.76,141.88 215.71,141.61 "/><path d="M215.71,141.61 C215.54,141.51 215.54,141.51 215.37,141.40 C215.24,141.29 215.24,141.29 215.10,141.17 C215.02,141.08 215.02,141.08 214.94,140.98 C214.91,140.93 214.91,140.93 214.89,140.88 "/><path d="M214.80,140.88 C215.21,141.80 215.21,141.81 215.64,142.71 C215.95,143.09 215.95,143.09 216.28,143.45 C216.94,143.96 216.94,143.96 217.61,144.44 C218.20,144.69 218.21,144.70 218.81,144.92 "/><path d="M219.00,136.37 C219.16,136.54 219.16,136.54 219.33,136.70 C219.49,136.88 219.49,136.88 219.65,137.06 C219.80,137.25 219.80,137.25 219.94,137.45 "/><path d="M241.69,145.67 C241.84,145.58 241.84,145.58 241.99,145.50 C242.14,145.44 242.14,145.44 242.30,145.38 C242.47,145.34 242.47,145.35 242.64,145.31 C242.93,145.20 242.93,145.19 243.23,145.08 C243.46,145.06 243.47,145.06 243.71,145.05 C243.91,145.08 243.91,145.08 244.11,145.10 "/><path d="M220.47,126.84 C220.91,127.17 220.91,127.17 221.33,127.53 C221.68,128.02 221.68,128.03 222.01,128.54 C222.24,129.13 222.24,129.13 222.44,129.73 "/><path d="M221.69,139.60 C221.54,139.18 221.54,139.18 221.39,138.76 C221.20,138.36 221.19,138.36 221.00,137.96 C220.95,137.89 220.95,137.89 220.90,137.81 "/><path d="M241.16,140.80 C240.73,140.47 240.72,140.47 240.31,140.11 C239.95,139.62 239.95,139.61 239.62,139.10 C239.40,138.51 239.39,138.51 239.20,137.91 "/><path d="M242.40,150.20 C242.44,149.91 242.44,149.91 242.49,149.61 C242.56,149.31 242.56,149.31 242.63,149.02 C242.72,148.72 242.72,148.72 242.82,148.43 "/><path d="M243.94,148.84 C243.86,149.14 243.86,149.14 243.78,149.44 C243.72,149.74 243.72,149.74 243.66,150.04 C243.62,150.34 243.62,150.34 243.58,150.64 "/><path d="M243.58,150.64 C243.85,150.71 243.85,150.71 244.11,150.77 C244.39,150.84 244.39,150.84 244.68,150.89 C244.97,150.95 244.97,150.95 245.27,150.99 "/><path d="M245.27,150.99 C245.25,151.24 245.25,151.24 245.24,151.48 C245.24,151.72 245.24,151.72 245.24,151.95 C245.26,152.18 245.26,152.18 245.28,152.41 "/><path d="M245.28,152.41 C244.99,152.38 244.99,152.38 244.69,152.35 C244.41,152.31 244.41,152.31 244.13,152.26 C243.86,152.21 243.86,152.21 243.60,152.15 "/><path d="M243.60,152.15 C243.64,152.41 243.64,152.41 243.69,152.68 C243.75,152.92 243.75,152.92 243.82,153.16 C243.90,153.39 243.90,153.39 243.99,153.61 "/><path d="M242.89,153.21 C242.78,152.98 242.78,152.98 242.68,152.75 C242.60,152.50 242.60,152.50 242.52,152.25 C242.47,151.99 242.47,151.99 242.42,151.72 "/><path d="M242.42,151.72 C242.24,151.62 242.24,151.62 242.07,151.52 C241.92,151.41 241.92,151.41 241.78,151.30 C241.66,151.18 241.66,151.18 241.55,151.06 "/><path d="M241.55,151.06 C241.53,150.83 241.53,150.83 241.50,150.60 C241.50,150.36 241.50,150.36 241.50,150.12 C241.51,149.87 241.51,149.87 241.53,149.63 "/><path d="M241.53,149.63 C241.64,149.73 241.65,149.73 241.76,149.83 C241.90,149.92 241.90,149.92 242.05,150.02 C242.22,150.11 242.22,150.11 242.40,150.20 "/><path d="M240.18,149.15 C240.20,148.79 240.20,148.79 240.22,148.44 C240.28,148.10 240.28,148.10 240.34,147.77 C240.43,147.47 240.43,147.47 240.53,147.16 "/><path d="M241.12,146.94 C241.27,146.63 241.27,146.63 241.43,146.33 C241.62,146.08 241.62,146.08 241.82,145.83 C242.04,145.63 242.04,145.63 242.28,145.44 "/><path d="M214.83,138.63 L213.59,139.10 L213.97,141.46 L215.05,143.65 L216.61,145.24 L218.35,145.92 L219.92,145.56 L221.03,144.23 L221.45,142.18 L221.10,139.82 L227.97,142.42 L227.97,150.54 L208.66,143.24 L205.70,138.26 L205.70,119.30 L206.88,118.20 L217.52,122.22 L217.52,135.44 L218.11,135.22 L218.61,135.45 L219.00,135.69 "/><path d="M206.88,118.20 L209.54,117.20 L221.95,121.88 L223.13,123.88 L223.13,125.84 "/><path d="M225.09,128.73 L222.44,129.73 L223.91,130.29 L226.57,129.29 L225.09,128.73 "/><path d="M209.54,117.20 L220.18,113.18 L233.18,118.09 L233.77,119.09 L291.11,97.42 "/><path d="M216.11,138.32 L216.43,138.47 L217.19,138.74 "/><path d="M214.90,140.92 L216.89,140.08 "/><path d="M216.66,135.34 L216.49,135.44 L215.12,137.33 L214.69,139.25 L214.80,140.88 "/><path d="M218.81,144.92 L220.38,145.01 "/><path d="M217.52,135.44 L216.02,135.26 L214.74,135.90 L213.89,137.24 L213.59,139.10 "/><path d="M217.61,144.44 L216.74,143.35 L216.25,143.07 L216.18,143.10 L215.64,142.71 "/><path d="M216.98,142.76 L216.25,143.07 "/><path d="M215.71,141.61 L217.71,140.77 "/><path d="M216.85,142.06 L218.46,141.13 "/><path d="M215.69,140.10 L216.93,139.84 "/><path d="M220.85,130.73 L220.77,130.74 L219.59,130.29 L219.00,130.52 L219.00,136.37 "/><path d="M219.94,137.45 L241.69,145.67 "/><path d="M218.11,135.22 L218.11,122.00 L217.52,122.22 "/><path d="M219.00,130.52 L220.18,130.96 L220.77,130.74 "/><path d="M220.18,130.96 L220.81,130.86 L221.07,130.14 L220.81,129.22 L220.18,128.64 L219.00,128.19 L219.00,122.78 L219.29,122.89 L220.47,124.88 L220.47,126.84 "/><path d="M219.29,122.89 L232.59,117.87 L233.77,119.86 L233.77,119.09 "/><path d="M218.11,122.00 L219.59,122.55 L219.00,122.78 "/><path d="M220.18,113.18 L219.59,112.95 L219.00,113.50 L219.00,113.62 "/><path d="M219.59,112.95 L284.00,88.61 L284.59,88.84 L291.10,86.38 "/><path d="M221.10,139.82 L221.69,139.60 "/><path d="M227.97,150.54 L228.56,150.32 L228.56,142.20 L221.69,139.60 "/><path d="M223.91,130.29 L223.91,132.14 L222.44,131.58 L222.01,132.45 L221.33,132.94 L220.47,132.98 L220.47,135.72 L223.13,134.71 L223.13,132.26 "/><path d="M220.47,135.72 L241.16,143.53 L241.16,140.80 "/><path d="M239.20,137.91 L237.72,137.35 L237.72,135.51 L239.20,136.07 L239.62,135.19 L240.31,134.70 L241.16,134.66 L241.16,132.70 L242.34,131.60 L242.64,131.71 L242.64,137.13 L241.45,136.68 L240.83,136.78 L240.57,137.51 L240.83,138.42 L241.45,139.00 L242.05,138.78 L241.42,138.20 L241.16,137.28 L241.37,136.69 "/><path d="M221.33,132.94 L223.69,132.05 "/><path d="M220.47,126.84 L291.11,100.15 "/><path d="M220.47,124.88 L233.77,119.86 L233.77,121.82 "/><path d="M241.16,133.48 L233.77,130.69 L223.13,134.71 L241.16,141.52 "/><path d="M223.91,132.14 L226.57,131.13 L226.57,129.29 "/><path d="M231.39,122.72 L231.11,123.88 L231.48,125.68 L232.47,127.20 L233.77,127.96 L226.57,130.68 "/><path d="M228.56,150.32 L233.66,152.25 "/><path d="M228.56,142.20 L227.97,142.42 "/><path d="M231.85,147.84 L231.41,147.91 L230.57,147.14 L230.23,145.92 L230.57,144.97 L231.41,144.82 L232.24,145.59 L232.59,146.81 L232.24,147.78 L231.85,147.84 "/><path d="M230.23,145.92 L231.91,145.28 "/><path d="M241.42,148.68 L240.18,149.15 L240.61,151.64 L241.80,153.92 L243.50,155.48 L243.92,155.60 L245.33,155.98 L246.89,155.32 L247.85,153.63 L247.99,151.29 L247.29,148.81 L245.90,146.72 L244.11,145.49 L244.11,132.27 L254.75,136.29 L255.93,138.28 L255.93,157.24 L252.98,159.99 L233.66,152.69 L233.66,144.57 L234.25,144.34 L241.12,146.94 L240.53,147.16 L233.66,144.57 "/><path d="M291.12,109.02 L233.77,130.69 L233.77,127.96 L291.12,106.29 "/><path d="M233.18,118.09 L291.11,96.20 "/><path d="M237.72,135.51 L240.38,134.50 L240.61,134.59 "/><path d="M242.82,148.43 L243.16,148.57 L243.94,148.84 "/><path d="M243.99,153.61 L243.33,153.40 L242.89,153.21 "/><path d="M242.40,150.20 L243.68,149.93 "/><path d="M243.73,152.85 L242.89,153.21 L242.24,152.76 L241.40,150.93 L241.29,149.30 L241.71,147.38 L243.08,145.49 L243.81,145.07 "/><path d="M242.28,145.44 L241.69,145.67 "/><path d="M241.45,139.00 L242.64,139.45 L242.64,145.31 "/><path d="M240.31,134.70 L241.16,134.38 "/><path d="M242.24,152.76 L242.87,153.50 L244.20,154.49 L243.33,153.40 L242.95,153.18 "/><path d="M241.55,151.06 L243.64,150.17 "/><path d="M242.42,151.72 L244.48,150.85 "/><path d="M243.60,152.15 L245.25,151.20 "/><path d="M243.23,145.08 L243.23,139.22 L242.64,139.45 "/><path d="M243.23,139.22 L242.05,138.78 "/><path d="M242.64,137.13 L243.23,136.90 L243.23,131.49 L242.64,131.71 "/><path d="M242.34,131.60 L245.00,130.59 L257.41,135.28 L258.59,137.28 L258.59,156.23 L260.34,155.58 "/><path d="M243.23,131.49 L244.70,132.04 L244.11,132.27 "/><path d="M247.04,155.06 L245.40,154.96 L244.20,154.49 "/><path d="M245.00,130.59 L255.64,126.57 L255.05,126.35 L254.45,126.90 L254.45,127.02 "/><path d="M252.98,159.99 L255.64,158.99 L258.59,156.23 L255.93,157.24 "/><path d="M255.64,158.99 L260.28,157.23 "/><path d="M255.93,138.28 L262.25,135.90 "/><path d="M254.75,136.29 L268.05,131.26 L268.64,131.49 L291.13,122.99 "/><path d="M255.05,126.35 L291.12,112.72 "/><path d="M255.64,126.57 L268.05,131.26 L268.27,131.64 "/><path d="M284.59,88.84 L291.11,91.30 "/></g></g><g id="Actor_20.1"><g style="stroke:#000020;stroke-width:0.353"><path d="M392.29,121.85 C393.61,121.83 393.61,121.83 394.93,121.78 C396.45,121.53 396.45,121.53 397.96,121.25 C399.65,120.73 399.66,120.73 401.34,120.18 "/><path d="M401.34,120.18 C400.71,120.42 400.71,120.42 400.08,120.65 C398.89,121.00 398.89,121.01 397.70,121.34 C396.32,121.58 396.32,121.57 394.93,121.78 C393.61,121.86 393.61,121.86 392.29,121.91 "/><path d="M392.29,111.27 C393.64,111.19 393.65,111.19 394.99,111.07 C396.28,110.77 396.29,110.77 397.57,110.42 C398.44,109.96 398.45,109.96 399.29,109.45 "/><path d="M399.29,107.15 C398.45,106.64 398.44,106.63 397.57,106.18 C396.29,105.82 396.28,105.83 394.99,105.53 C393.65,105.40 393.64,105.40 392.29,105.32 "/><path d="M404.77,115.34 C404.33,116.34 404.33,116.34 403.87,117.34 C403.47,118.03 403.47,118.03 403.06,118.71 C402.66,119.17 402.66,119.18 402.24,119.63 C401.80,119.91 401.80,119.92 401.34,120.18 "/><path d="M401.34,112.79 C401.78,111.79 401.78,111.79 402.24,110.79 C402.64,110.10 402.66,110.11 403.06,109.42 C403.26,108.87 403.26,108.86 403.45,108.30 "/><path d="M403.06,107.17 C402.50,106.64 402.49,106.63 401.91,106.13 C401.01,105.66 401.00,105.66 400.08,105.23 C398.90,104.86 398.89,104.87 397.70,104.54 C396.32,104.30 396.32,104.31 394.93,104.10 C393.61,104.02 393.61,104.02 392.29,103.97 "/><path d="M404.77,107.95 C404.31,108.21 404.31,108.21 403.87,108.50 C403.45,108.95 403.47,108.97 403.06,109.42 C402.49,109.95 402.49,109.97 401.91,110.47 C401.01,110.94 401.00,110.94 400.08,111.37 C398.90,111.73 398.89,111.73 397.70,112.06 C396.32,112.29 396.32,112.29 394.93,112.49 "/><path d="M392.29,112.95 L394.93,112.49 L392.29,112.62 "/><path d="M399.29,109.45 L399.90,108.30 L399.29,107.15 "/><path d="M400.08,105.23 L402.30,106.29 L404.77,107.95 L404.77,115.34 "/><path d="M401.34,120.18 L401.34,112.79 "/><path d="M403.45,108.30 L403.06,107.17 "/><path d="M394.93,112.49 L397.96,112.41 L401.34,112.79 "/><path d="M398.01,110.17 L398.18,109.58 L397.26,108.59 L395.29,107.84 L394.58,107.75 "/></g></g><g id="Actor_33.0"><g style="stroke:#000020;stroke-width:0.353"><path d="M260.46,158.85 C260.75,159.22 260.75,159.23 261.06,159.59 C261.53,159.94 261.53,159.94 262.02,160.27 C262.66,160.58 262.67,160.58 263.32,160.87 "/><path d="M260.26,158.08 C260.27,157.30 260.27,157.30 260.29,156.51 C260.45,152.86 260.44,152.86 260.62,149.21 C260.98,145.51 260.99,145.51 261.38,141.81 C261.83,138.65 261.83,138.65 262.31,135.49 "/><path d="M265.30,138.34 C264.86,141.19 264.86,141.19 264.44,144.04 C264.12,146.88 264.12,146.88 263.82,149.71 C263.62,152.52 263.62,152.52 263.45,155.33 C263.37,158.10 263.38,158.10 263.32,160.87 C263.32,162.75 263.32,166.50 263.32,164.62 "/><path d="M262.57,134.71 C262.87,134.33 262.88,134.33 263.20,133.96 C263.70,133.61 263.70,133.61 264.22,133.28 C264.87,132.96 264.88,132.96 265.54,132.67 "/><path d="M323.75,180.70 C322.52,180.86 322.52,180.86 321.29,180.98 C320.00,180.99 320.00,180.99 318.71,180.97 C317.49,180.83 317.49,180.83 316.27,180.67 C315.23,180.39 315.23,180.39 314.19,180.09 "/><path d="M314.19,219.44 C315.23,219.74 315.23,219.74 316.27,220.01 C317.49,220.18 317.49,220.18 318.71,220.32 C320.00,220.34 320.00,220.34 321.29,220.33 C322.52,220.20 322.52,220.20 323.75,220.05 "/><path d="M323.02,221.03 C321.70,221.17 321.69,221.17 320.37,221.28 C319.02,221.21 319.01,221.21 317.67,221.11 C316.52,220.85 316.51,220.84 315.38,220.54 "/><path d="M314.69,170.45 C315.72,170.81 315.72,170.81 316.76,171.14 C317.98,171.41 317.98,171.41 319.20,171.64 C320.48,171.78 320.48,171.78 321.76,171.89 C322.99,171.89 322.99,171.89 324.21,171.86 "/><path d="M337.72,217.49 C357.03,196.11 357.03,196.11 376.29,174.68 C378.11,172.45 378.12,172.45 379.89,170.17 C381.23,167.98 381.22,167.96 382.50,165.73 C383.00,164.58 383.00,164.58 383.47,163.42 C383.81,162.28 383.83,162.28 384.14,161.14 C384.39,159.22 384.39,159.21 384.59,157.29 "/><path d="M384.59,157.29 C385.74,157.06 385.74,157.06 386.89,156.82 C387.99,156.55 387.99,156.55 389.09,156.28 C390.12,155.98 390.12,155.98 391.15,155.67 C392.12,155.34 392.12,155.34 393.08,155.00 "/><path d="M393.08,155.00 C392.84,158.32 392.83,158.34 392.47,161.64 C391.62,165.01 391.61,165.02 390.65,168.36 C389.20,171.75 389.19,171.76 387.64,175.10 C385.59,178.49 385.63,178.54 383.44,181.82 C369.56,197.41 369.54,197.42 355.49,212.85 "/><path d="M355.49,212.85 C354.90,213.07 354.90,213.07 354.31,213.28 C352.76,213.78 352.76,213.79 351.20,214.29 C348.89,214.94 348.89,214.94 346.57,215.57 C344.00,216.18 343.99,216.18 341.42,216.76 C338.74,217.29 338.74,217.29 336.06,217.79 "/><path d="M336.95,218.47 C339.11,218.01 339.11,218.01 341.28,217.54 C343.34,217.03 343.34,217.03 345.40,216.50 C347.32,215.94 347.32,215.94 349.24,215.36 C350.99,214.76 350.99,214.76 352.73,214.15 C353.32,213.93 353.32,213.93 353.90,213.71 C354.70,213.29 354.70,213.29 355.49,212.85 "/><path d="M430.60,164.00 C431.17,162.02 431.17,162.02 431.70,160.02 C432.34,157.02 432.34,157.02 432.93,154.01 C433.35,150.86 433.35,150.86 433.72,147.71 C433.91,144.45 433.89,144.44 434.06,141.18 C434.07,140.35 434.07,140.34 434.07,139.51 "/><path d="M435.83,138.21 C435.83,139.02 435.83,139.03 435.82,139.85 C435.65,143.07 435.67,143.07 435.48,146.28 C435.12,149.39 435.12,149.39 434.71,152.49 C434.13,155.46 434.12,155.46 433.50,158.42 C433.01,160.15 433.01,160.15 432.48,161.88 "/><path d="M341.76,143.06 C350.84,146.51 350.85,146.51 359.94,149.93 C360.97,150.23 360.98,150.23 362.02,150.50 C363.24,150.67 363.24,150.67 364.46,150.81 C365.75,150.83 365.75,150.83 367.04,150.82 C368.27,150.70 368.27,150.70 369.50,150.54 "/><path d="M369.50,115.72 C368.27,115.87 368.27,115.87 367.04,116.00 C365.75,116.01 365.75,116.01 364.46,115.99 C363.24,115.85 363.24,115.85 362.02,115.68 C360.98,115.41 360.98,115.41 359.95,115.11 "/><path d="M384.59,112.95 C385.76,112.72 385.76,112.72 386.93,112.48 C388.05,112.21 388.05,112.21 389.16,111.93 C390.22,111.62 390.23,111.63 391.28,111.30 C391.76,111.05 391.76,111.04 392.23,110.76 "/><path d="M391.28,140.70 C392.78,140.16 392.78,140.16 394.27,139.60 C395.56,138.99 395.56,138.99 396.84,138.36 C397.91,137.69 397.91,137.69 398.96,136.99 "/><path d="M398.03,123.58 C397.00,124.00 397.00,124.00 395.95,124.37 C394.58,124.59 394.57,124.58 393.19,124.77 C392.74,124.77 392.74,124.77 392.29,124.75 "/><path d="M435.49,123.76 C434.87,124.16 434.87,124.17 434.22,124.53 C433.27,124.81 433.26,124.81 432.29,125.06 C431.13,125.19 431.11,125.12 429.96,125.28 C424.79,127.18 424.77,127.18 419.64,129.18 "/><path d="M207.36,178.79 L208.90,180.13 L209.54,180.55 L208.36,179.45 L207.28,178.74 L207.28,176.38 L207.28,178.74 "/><path d="M207.28,176.38 L207.28,142.55 L207.28,144.97 "/><path d="M207.28,143.15 L208.36,143.86 L208.36,179.45 L314.19,219.44 L315.38,220.54 L209.54,180.55 "/><path d="M207.88,141.94 L207.28,142.34 L207.28,142.55 "/><path d="M208.36,143.86 L263.25,164.59 L261.40,163.62 L260.39,162.45 L260.26,158.08 L260.46,158.85 "/><path d="M263.32,160.87 L314.19,180.09 L314.69,170.45 L319.62,159.98 "/><path d="M262.31,135.49 L262.48,136.27 L263.03,137.03 L264.00,137.73 L265.30,138.34 "/><path d="M263.32,164.62 L263.25,164.59 "/><path d="M262.31,135.49 L262.57,134.71 "/><path d="M265.54,132.67 L291.13,123.00 "/><path d="M265.30,138.34 L295.45,149.73 "/><path d="M299.37,132.23 L293.99,130.93 L292.03,130.18 L291.13,129.19 L291.13,115.32 "/><path d="M293.99,130.93 L293.99,120.84 "/><path d="M323.02,221.03 L335.32,218.77 L336.06,217.79 L323.75,220.05 L323.75,180.70 "/><path d="M314.19,180.09 L314.19,219.44 "/><path d="M323.75,220.05 L323.02,221.03 "/><path d="M324.21,171.86 L324.69,165.21 L324.72,159.79 "/><path d="M323.75,180.70 L323.87,176.30 L324.21,171.86 "/><path d="M335.32,218.77 L336.95,218.47 L337.72,217.49 "/><path d="M355.49,212.85 L423.40,187.19 L424.75,186.37 L425.15,185.40 L432.48,161.88 L431.98,163.09 L430.60,164.00 "/><path d="M434.07,139.51 L435.23,138.92 L435.83,138.21 "/><path d="M369.50,150.54 L339.94,155.95 "/><path d="M359.94,149.93 L359.95,115.11 L347.54,110.42 "/><path d="M353.90,213.71 L421.81,188.05 L423.40,187.19 L430.60,164.00 L383.44,181.82 L380.37,178.67 L376.29,174.68 "/><path d="M354.31,213.28 L352.73,214.15 "/><path d="M369.50,150.54 L369.50,115.72 L384.59,112.95 L384.59,157.29 "/><path d="M392.23,110.76 L392.29,110.14 L392.29,139.53 L392.23,140.17 L391.28,140.70 "/><path d="M398.96,136.99 L396.28,146.23 L393.08,155.00 "/><path d="M391.28,140.70 L391.28,111.30 "/><path d="M398.51,121.11 L398.94,121.42 L399.09,122.54 L398.03,123.58 "/><path d="M392.81,83.62 L392.81,104.00 "/><path d="M393.99,104.06 L393.99,83.70 "/><path d="M398.28,127.81 L398.28,124.71 L410.24,129.23 L410.77,132.53 L398.28,127.81 L397.85,127.53 L397.85,124.10 L399.46,122.72 L405.97,120.26 L417.62,124.67 L411.12,127.12 L399.46,122.72 L398.28,124.71 L397.85,124.43 L399.46,122.72 "/><path d="M398.96,136.99 L410.77,132.53 "/><path d="M404.77,110.17 L434.07,121.24 L435.41,121.99 L435.91,122.87 L435.49,123.76 "/><path d="M419.64,129.18 L419.11,125.88 L417.62,124.67 "/><path d="M410.24,129.23 L411.12,127.12 "/><path d="M434.07,139.51 L432.26,132.66 L429.96,125.28 "/><path d="M435.83,138.21 L435.91,122.87 "/></g></g><g/><g/><g id="paperID" visibility="hidden" opacity="0.00" transform="scale(0.000100)"><path style="stroke:#000000;stroke-width:0.500;fill:#e6e6e6;fill-rule:evenodd" d="M-2000.00,-2000.00L2640.00,-2000.00L2640.00,2360.00L-2000.00,2360.00zM0.00,0.00L640.00,0.00L640.00,360.00L0.00,360.00z"/><path style="fill:#000000;fill-opacity:0.118" d="M3.00,360.00L640.00,360.00L640.00,3.00L643.00,3.00L643.00,363.00L3.00,363.00z"/></g><g><g><path style="stroke:#000000;stroke-width:0.353;fill:#44d62c" d="M14.96,263.66L214.99,263.66L214.99,277.88L14.96,277.88z"/><text xml:space="preserve" fill="#000000" stroke-width="0" x="20.43" y="274.60" font-size="8.82" opacity="1.00" font-family="Play" font-weight="bold">Description</text><text xml:space="preserve" fill="#000000" stroke-width="0" x="150.55" y="274.60" font-size="8.86" opacity="1.00" font-family="Play" font-weight="bold">BOM ID</text><text xml:space="preserve" fill="#000000" stroke-width="0" x="194.04" y="274.60" font-size="8.43" opacity="1.00" font-family="Play" font-weight="bold">Qty</text><path style="stroke:#000000;stroke-width:0.353" d="M145.08,263.66L145.08,277.88"/><path style="stroke:#000000;stroke-width:0.353" d="M188.57,263.66L188.57,277.88"/></g><g id="Line17"><path style="stroke:#000000;stroke-width:0.353;fill:#a0a0a4" d="M14.96,277.88L214.99,277.88L214.99,292.09L14.96,292.09z"/><text xml:space="preserve" fill="#000000" stroke-width="0" x="20.43" y="288.81" font-size="9.31" opacity="1.00" font-family="Play">F623-2RS</text><text xml:space="preserve" fill="#000000" stroke-width="0" x="150.55" y="288.81" font-size="8.48" opacity="1.00" font-family="Play">17</text><text xml:space="preserve" fill="#000000" stroke-width="0" x="194.04" y="288.81" font-size="8.62" opacity="1.00" font-family="Play">4</text><path style="stroke:#000000;stroke-width:0.353" d="M145.08,277.88L145.08,292.09"/><path style="stroke:#000000;stroke-width:0.353" d="M188.57,277.88L188.57,292.09"/></g><g id="Line18"><path style="stroke:#000000;stroke-width:0.353;fill:#ffffff" d="M14.96,292.09L214.99,292.09L214.99,306.31L14.96,306.31z"/><text xml:space="preserve" fill="#000000" stroke-width="0" x="20.43" y="303.03" font-size="9.36" opacity="1.00" font-family="Play">M2x12 SHCS</text><text xml:space="preserve" fill="#000000" stroke-width="0" x="150.55" y="303.03" font-size="8.48" opacity="1.00" font-family="Play">18</text><text xml:space="preserve" fill="#000000" stroke-width="0" x="194.04" y="303.03" font-size="8.62" opacity="1.00" font-family="Play">4</text><path style="stroke:#000000;stroke-width:0.353" d="M145.08,292.09L145.08,306.31"/><path style="stroke:#000000;stroke-width:0.353" d="M188.57,292.09L188.57,306.31"/></g><g id="Line20"><path style="stroke:#000000;stroke-width:0.353;fill:#a0a0a4" d="M14.96,306.31L214.99,306.31L214.99,320.52L14.96,320.52z"/><text xml:space="preserve" fill="#000000" stroke-width="0" x="20.43" y="317.24" font-size="9.35" opacity="1.00" font-family="Play">M3 Hexnut</text><text xml:space="preserve" fill="#000000" stroke-width="0" x="150.55" y="317.24" font-size="8.89" opacity="1.00" font-family="Play">20</text><text xml:space="preserve" fill="#000000" stroke-width="0" x="194.04" y="317.24" font-size="8.23" opacity="1.00" font-family="Play">3</text><path style="stroke:#000000;stroke-width:0.353" d="M145.08,306.31L145.08,320.52"/><path style="stroke:#000000;stroke-width:0.353" d="M188.57,306.31L188.57,320.52"/></g><g id="Line21"><path style="stroke:#000000;stroke-width:0.353;fill:#ffffff" d="M14.96,320.52L214.99,320.52L214.99,334.73L14.96,334.73z"/><text xml:space="preserve" fill="#000000" stroke-width="0" x="20.43" y="331.45" font-size="9.42" opacity="1.00" font-family="Play">M3 Threaded Heatset Insert</text><text xml:space="preserve" fill="#000000" stroke-width="0" x="150.55" y="331.45" font-size="8.89" opacity="1.00" font-family="Play">21</text><text xml:space="preserve" fill="#000000" stroke-width="0" x="194.04" y="331.45" font-size="8.31" opacity="1.00" font-family="Play">2</text><path style="stroke:#000000;stroke-width:0.353" d="M145.08,320.52L145.08,334.73"/><path style="stroke:#000000;stroke-width:0.353" d="M188.57,320.52L188.57,334.73"/></g><g id="Line23"><path style="stroke:#000000;stroke-width:0.353;fill:#a0a0a4" d="M14.96,334.73L214.99,334.73L214.99,348.95L14.96,348.95z"/><text xml:space="preserve" fill="#000000" stroke-width="0" x="20.43" y="345.67" font-size="9.44" opacity="1.00" font-family="Play">M3 Washer 7mmx.5mm</text><text xml:space="preserve" fill="#000000" stroke-width="0" x="150.55" y="345.67" font-size="8.89" opacity="1.00" font-family="Play">23</text><text xml:space="preserve" fill="#000000" stroke-width="0" x="194.04" y="345.67" font-size="8.31" opacity="1.00" font-family="Play">2</text><path style="stroke:#000000;stroke-width:0.353" d="M145.08,334.73L145.08,348.95"/><path style="stroke:#000000;stroke-width:0.353" d="M188.57,334.73L188.57,348.95"/></g><g><path style="stroke:#000000;stroke-width:0.353;fill:#44d62c" d="M219.99,263.66L420.01,263.66L420.01,277.88L219.99,277.88z"/><text xml:space="preserve" fill="#000000" stroke-width="0" x="225.45" y="274.60" font-size="8.82" opacity="1.00" font-family="Play" font-weight="bold">Description</text><text xml:space="preserve" fill="#000000" stroke-width="0" x="355.58" y="274.60" font-size="8.86" opacity="1.00" font-family="Play" font-weight="bold">BOM ID</text><text xml:space="preserve" fill="#000000" stroke-width="0" x="399.07" y="274.60" font-size="8.43" opacity="1.00" font-family="Play" font-weight="bold">Qty</text><path style="stroke:#000000;stroke-width:0.353" d="M350.11,263.66L350.11,277.88"/><path style="stroke:#000000;stroke-width:0.353" d="M393.60,263.66L393.60,277.88"/></g><g id="Line26"><path style="stroke:#000000;stroke-width:0.353;fill:#a0a0a4" d="M219.99,277.88L420.01,277.88L420.01,292.09L219.99,292.09z"/><text xml:space="preserve" fill="#000000" stroke-width="0" x="225.45" y="288.81" font-size="9.36" opacity="1.00" font-family="Play">M3x20 BHCS</text><text xml:space="preserve" fill="#000000" stroke-width="0" x="355.58" y="288.81" font-size="8.89" opacity="1.00" font-family="Play">26</text><text xml:space="preserve" fill="#000000" stroke-width="0" x="399.07" y="288.81" font-size="7.48" opacity="1.00" font-family="Play">1</text><path style="stroke:#000000;stroke-width:0.353" d="M350.11,277.88L350.11,292.09"/><path style="stroke:#000000;stroke-width:0.353" d="M393.60,277.88L393.60,292.09"/></g><g id="Line29"><path style="stroke:#000000;stroke-width:0.353;fill:#ffffff" d="M219.99,292.09L420.01,292.09L420.01,306.31L219.99,306.31z"/><text xml:space="preserve" fill="#000000" stroke-width="0" x="225.45" y="303.03" font-size="9.36" opacity="1.00" font-family="Play">M3x25 BHCS</text><text xml:space="preserve" fill="#000000" stroke-width="0" x="355.58" y="303.03" font-size="8.89" opacity="1.00" font-family="Play">29</text><text xml:space="preserve" fill="#000000" stroke-width="0" x="399.07" y="303.03" font-size="8.31" opacity="1.00" font-family="Play">2</text><path style="stroke:#000000;stroke-width:0.353" d="M350.11,292.09L350.11,306.31"/><path style="stroke:#000000;stroke-width:0.353" d="M393.60,292.09L393.60,306.31"/></g><g id="Line30"><path style="stroke:#000000;stroke-width:0.353;fill:#a0a0a4" d="M219.99,306.31L420.01,306.31L420.01,320.52L219.99,320.52z"/><text xml:space="preserve" fill="#000000" stroke-width="0" x="225.45" y="317.24" font-size="9.36" opacity="1.00" font-family="Play">M3x35 SHCS</text><text xml:space="preserve" fill="#000000" stroke-width="0" x="355.58" y="317.24" font-size="8.85" opacity="1.00" font-family="Play">30</text><text xml:space="preserve" fill="#000000" stroke-width="0" x="399.07" y="317.24" font-size="8.31" opacity="1.00" font-family="Play">2</text><path style="stroke:#000000;stroke-width:0.353" d="M350.11,306.31L350.11,320.52"/><path style="stroke:#000000;stroke-width:0.353" d="M393.60,306.31L393.60,320.52"/></g><g id="Line31"><path style="stroke:#000000;stroke-width:0.353;fill:#ffffff" d="M219.99,320.52L420.01,320.52L420.01,334.73L219.99,334.73z"/><text xml:space="preserve" fill="#000000" stroke-width="0" x="225.45" y="331.45" font-size="9.35" opacity="1.00" font-family="Play">M3x8 BHCS</text><text xml:space="preserve" fill="#000000" stroke-width="0" x="355.58" y="331.45" font-size="8.85" opacity="1.00" font-family="Play">31</text><text xml:space="preserve" fill="#000000" stroke-width="0" x="399.07" y="331.45" font-size="8.31" opacity="1.00" font-family="Play">2</text><path style="stroke:#000000;stroke-width:0.353" d="M350.11,320.52L350.11,334.73"/><path style="stroke:#000000;stroke-width:0.353" d="M393.60,320.52L393.60,334.73"/></g><g id="Line32"><path style="stroke:#000000;stroke-width:0.353;fill:#a0a0a4" d="M219.99,334.73L420.01,334.73L420.01,348.95L219.99,348.95z"/><text xml:space="preserve" fill="#000000" stroke-width="0" x="225.45" y="345.67" font-size="9.33" opacity="1.00" font-family="Play">MGN7-H-1</text><text xml:space="preserve" fill="#000000" stroke-width="0" x="355.58" y="345.67" font-size="8.85" opacity="1.00" font-family="Play">32</text><text xml:space="preserve" fill="#000000" stroke-width="0" x="399.07" y="345.67" font-size="7.48" opacity="1.00" font-family="Play">1</text><path style="stroke:#000000;stroke-width:0.353" d="M350.11,334.73L350.11,348.95"/><path style="stroke:#000000;stroke-width:0.353" d="M393.60,334.73L393.60,348.95"/></g><g><path style="stroke:#000000;stroke-width:0.353;fill:#44d62c" d="M425.01,263.66L625.04,263.66L625.04,277.88L425.01,277.88z"/><text xml:space="preserve" fill="#000000" stroke-width="0" x="430.48" y="274.60" font-size="8.82" opacity="1.00" font-family="Play" font-weight="bold">Description</text><text xml:space="preserve" fill="#000000" stroke-width="0" x="560.60" y="274.60" font-size="8.86" opacity="1.00" font-family="Play" font-weight="bold">BOM ID</text><text xml:space="preserve" fill="#000000" stroke-width="0" x="604.09" y="274.60" font-size="8.43" opacity="1.00" font-family="Play" font-weight="bold">Qty</text><path style="stroke:#000000;stroke-width:0.353" d="M555.14,263.66L555.14,277.88"/><path style="stroke:#000000;stroke-width:0.353" d="M598.63,263.66L598.63,277.88"/></g><g id="Line33"><path style="stroke:#000000;stroke-width:0.353;fill:#a0a0a4" d="M425.01,277.88L625.04,277.88L625.04,292.09L425.01,292.09z"/><text xml:space="preserve" fill="#000000" stroke-width="0" x="430.48" y="288.81" font-size="9.51" opacity="1.00" font-family="Play">XY Joint Lower Left</text><text xml:space="preserve" fill="#000000" stroke-width="0" x="560.60" y="288.81" font-size="8.85" opacity="1.00" font-family="Play">33</text><text xml:space="preserve" fill="#000000" stroke-width="0" x="604.09" y="288.81" font-size="7.48" opacity="1.00" font-family="Play">1</text><path style="stroke:#000000;stroke-width:0.353" d="M555.14,277.88L555.14,292.09"/><path style="stroke:#000000;stroke-width:0.353" d="M598.63,277.88L598.63,292.09"/></g><g id="Line34"><path style="stroke:#000000;stroke-width:0.353;fill:#ffffff" d="M425.01,292.09L625.04,292.09L625.04,306.31L425.01,306.31z"/><text xml:space="preserve" fill="#000000" stroke-width="0" x="430.48" y="303.03" font-size="9.49" opacity="1.00" font-family="Play">XY Joint Upper Left</text><text xml:space="preserve" fill="#000000" stroke-width="0" x="560.60" y="303.03" font-size="8.85" opacity="1.00" font-family="Play">34</text><text xml:space="preserve" fill="#000000" stroke-width="0" x="604.09" y="303.03" font-size="7.48" opacity="1.00" font-family="Play">1</text><path style="stroke:#000000;stroke-width:0.353" d="M555.14,292.09L555.14,306.31"/><path style="stroke:#000000;stroke-width:0.353" d="M598.63,292.09L598.63,306.31"/></g></g><g id="hotspot.0" ident="" onmouseover="ShowHotSpot(evt,'0')" onmouseout="HideHotSpot(evt,'0')" onmousemove="ShowToolTip(evt,'0',&quot;smg object 2&quot;)" opacity="0"><path style="fill:#00ff00;fill-rule:evenodd" d="M14.96,277.88L14.96,292.09L214.99,292.09L214.99,277.88zM299.35,124.01L307.52,126.35L318.63,127.50L324.29,127.50L330.73,126.93L342.40,122.85L344.32,122.19L344.36,124.81L343.76,125.95L341.41,127.69L340.82,136.44L340.83,142.67L341.99,143.26L343.78,145.57L343.78,152.24L341.76,154.90L337.33,157.48L327.79,159.61L311.63,159.61L304.02,157.88L299.43,156.04L296.50,153.72L295.82,152.65L295.89,145.24L298.82,142.33L299.35,128.10L297.08,126.28L296.41,125.21L296.24,122.79L296.99,122.72z"/></g><g id="hotspot.1" ident="" onmouseover="ShowHotSpot(evt,'1')" onmouseout="HideHotSpot(evt,'1')" onmousemove="ShowToolTip(evt,'1',&quot;Body1&quot;)" opacity="0"><path style="fill:#00ff00;fill-rule:evenodd" d="M14.96,292.09L14.96,306.31L214.99,306.31L214.99,292.09z"/></g><g id="hotspot.2" ident="" onmouseover="ShowHotSpot(evt,'2')" onmouseout="HideHotSpot(evt,'2')" onmousemove="ShowToolTip(evt,'2',&quot;Body1&quot;)" opacity="0"><path style="fill:#00ff00;fill-rule:evenodd" d="M14.96,306.31L14.96,320.52L214.99,320.52L214.99,306.31zM438.31,88.92L437.75,90.27L432.92,91.89L421.37,91.91L416.67,90.04L416.52,89.51L427.64,88.96L434.34,87.22zM398.07,104.71L402.14,106.47L404.51,108.19L404.50,116.04L402.21,119.58L398.65,121.28L392.58,121.87L392.60,111.72L397.35,110.55L397.51,109.94L395.14,108.22L392.62,107.25L392.60,104.09z"/></g><g id="hotspot.3" ident="" onmouseover="ShowHotSpot(evt,'3')" onmouseout="HideHotSpot(evt,'3')" onmousemove="ShowToolTip(evt,'3',&quot;Body1&quot;)" opacity="0"><path style="fill:#00ff00;fill-rule:evenodd" d="M14.96,320.52L14.96,334.73L214.99,334.73L214.99,320.52z"/></g><g id="hotspot.4" ident="" onmouseover="ShowHotSpot(evt,'4')" onmouseout="HideHotSpot(evt,'4')" onmousemove="ShowToolTip(evt,'4',&quot;Body1&quot;)" opacity="0"><path style="fill:#00ff00;fill-rule:evenodd" d="M14.96,334.73L14.96,348.95L214.99,348.95L214.99,334.73z"/></g><g id="hotspot.5" ident="" onmouseover="ShowHotSpot(evt,'5')" onmouseout="HideHotSpot(evt,'5')" onmousemove="ShowToolTip(evt,'5',&quot;Body1&quot;)" opacity="0"><path style="fill:#00ff00;fill-rule:evenodd" d="M219.99,277.88L219.99,292.09L420.01,292.09L420.01,277.88zM397.51,109.94L396.97,110.77L392.60,111.38L392.61,107.58L393.95,107.57zM398.06,123.59L397.35,124.08L392.60,124.81L392.58,122.21L398.07,121.63z"/></g><g id="hotspot.6" ident="" onmouseover="ShowHotSpot(evt,'6')" onmouseout="HideHotSpot(evt,'6')" onmousemove="ShowToolTip(evt,'6',&quot;Body1&quot;)" opacity="0"><path style="fill:#00ff00;fill-rule:evenodd" d="M219.99,292.09L219.99,306.31L420.01,306.31L420.01,292.09zM327.47,39.83L330.34,43.37L330.12,46.92L326.80,48.85L321.37,49.83L316.30,49.83L310.43,48.69L307.54,46.92L307.50,43.55L312.01,38.73L316.10,36.97L321.57,36.97zM327.40,63.84L330.92,67.91L330.93,71.09L327.82,73.22L321.95,74.36L317.47,74.36L311.01,73.22L308.12,71.44L308.16,67.57L310.86,64.44L316.68,61.50L322.15,61.50z"/></g><g id="hotspot.7" ident="" onmouseover="ShowHotSpot(evt,'7')" onmouseout="HideHotSpot(evt,'7')" onmousemove="ShowToolTip(evt,'7',&quot;Body1&quot;)" opacity="0"><path style="fill:#00ff00;fill-rule:evenodd" d="M219.99,306.31L219.99,320.52L420.01,320.52L420.01,306.31zM358.36,30.55L361.27,31.72L363.64,33.44L363.59,38.33L362.27,38.77L356.98,39.90L347.83,39.91L342.54,38.78L341.42,38.15L341.34,33.61L344.73,31.15L349.40,29.98L355.42,29.98zM366.52,55.08L368.89,56.80L368.68,62.11L364.60,63.28L351.32,63.28L346.48,61.70L346.62,57.57L348.21,55.66L352.90,53.92L363.01,53.92z"/></g><g id="hotspot.8" ident="" onmouseover="ShowHotSpot(evt,'8')" onmouseout="HideHotSpot(evt,'8')" onmousemove="ShowToolTip(evt,'8',&quot;Body1&quot;)" opacity="0"><path style="fill:#00ff00;fill-rule:evenodd" d="M219.99,320.52L219.99,334.73L420.01,334.73L420.01,320.52zM396.31,37.56L400.46,39.83L403.93,43.98L403.93,45.95L403.34,47.13L400.38,48.85L395.52,49.83L388.71,49.83L385.17,49.28L380.54,46.92L380.57,43.63L384.44,39.33L387.94,37.58L390.27,36.99L393.96,36.99zM431.93,50.99L436.00,53.34L438.95,56.81L438.96,59.99L436.44,62.14L430.56,63.26L424.33,63.26L420.79,62.72L416.16,60.35L416.11,56.98L420.06,52.76L422.95,50.98L425.31,50.42L429.58,50.42z"/></g><g id="hotspot.9" ident="" onmouseover="ShowHotSpot(evt,'9')" onmouseout="HideHotSpot(evt,'9')" onmousemove="ShowToolTip(evt,'9',&quot;smg object 0&quot;)" opacity="0"><path style="fill:#00ff00;fill-rule:evenodd" d="M219.99,334.73L219.99,348.95L420.01,348.95L420.01,334.73zM205.94,118.93L220.34,112.89L283.40,88.94L286.36,88.40L291.26,86.64L291.19,123.01L264.13,133.33L262.59,134.71L261.41,142.28L260.23,157.46L254.25,159.65L251.46,159.64L233.46,152.53L229.91,150.82L225.19,149.70L208.70,143.42L205.91,138.62z"/></g><g id="hotspot.10" ident="" onmouseover="ShowHotSpot(evt,'10')" onmouseout="HideHotSpot(evt,'10')" onmousemove="ShowToolTip(evt,'10',&quot;Body1&quot;)" opacity="0"><path style="fill:#00ff00;fill-rule:evenodd" d="M425.01,277.88L425.01,292.09L625.04,292.09L625.04,277.88zM393.95,84.28L393.94,103.82L392.63,103.82L392.81,83.63zM427.25,118.74L435.42,122.24L435.42,147.54L433.69,158.07L424.92,186.09L423.75,187.26L357.75,212.35L344.76,216.88L324.29,220.93L316.26,220.96L208.30,180.02L207.69,179.47L207.53,142.59L210.00,143.87L225.19,149.70L229.91,150.82L233.46,152.53L251.46,159.64L254.25,159.65L260.23,157.46L261.41,142.28L262.59,134.71L264.13,133.33L291.19,123.01L291.81,118.65L292.32,119.26L295.85,122.26L296.40,125.21L297.08,126.28L299.35,128.10L298.82,142.33L295.89,145.24L295.82,152.65L296.50,153.72L299.43,156.04L304.02,157.88L311.63,159.61L327.79,159.61L337.33,157.48L341.76,154.90L343.78,152.24L343.78,145.57L341.99,143.26L340.83,142.67L340.82,136.44L341.41,127.69L343.76,125.95L344.91,121.85L347.29,120.13L347.84,110.50L351.91,112.32L362.41,115.84L369.25,115.82L390.30,111.77L392.28,111.17L392.60,124.81L397.36,124.07L398.04,123.59L398.62,121.24L402.21,119.58L404.50,116.04L404.87,110.51L405.60,110.46z"/></g><g id="hotspot.11" ident="" onmouseover="ShowHotSpot(evt,'11')" onmouseout="HideHotSpot(evt,'11')" onmousemove="ShowToolTip(evt,'11',&quot;Body1&quot;)" opacity="0"><path style="fill:#00ff00;fill-rule:evenodd" d="M425.01,292.09L425.01,306.31L625.04,306.31L625.04,292.09zM356.00,25.89L394.55,33.48L450.03,54.50L454.13,57.40L457.04,60.91L458.78,66.18L458.81,75.75L457.39,77.83L448.08,81.95L447.49,85.45L440.53,88.41L437.14,88.40L434.34,87.22L427.64,88.96L413.82,88.96L409.14,87.80L400.95,84.89L392.77,83.68L392.28,110.82L390.30,111.76L369.25,115.82L362.41,115.84L351.91,112.32L347.84,110.50L347.06,120.49L342.40,122.84L330.73,126.93L324.29,127.50L318.63,127.50L307.52,126.35L299.35,124.01L294.17,121.01L291.81,118.71L291.79,73.18L288.82,65.63L288.82,51.74L291.01,47.50L295.08,43.98L305.03,39.93L343.52,25.27L351.33,25.31zM358.36,30.55L361.27,31.72L363.64,33.44L363.59,38.33L362.27,38.77L356.98,39.90L347.83,39.91L342.54,38.78L341.42,38.15L341.34,33.61L344.73,31.15L349.40,29.98L355.42,29.98zM396.31,37.56L400.46,39.83L403.93,43.98L403.93,45.95L403.34,47.13L400.38,48.85L395.52,49.83L388.71,49.83L385.17,49.28L380.54,46.92L380.57,43.63L384.44,39.33L387.94,37.58L390.27,36.99L393.96,36.99zM327.47,39.83L330.34,43.37L330.12,46.92L326.80,48.85L321.37,49.83L316.30,49.83L310.43,48.69L307.54,46.92L307.50,43.55L312.01,38.73L316.10,36.97L321.57,36.97zM431.93,50.99L436.00,53.34L438.95,56.81L438.96,59.99L436.44,62.14L430.56,63.26L424.33,63.26L420.79,62.72L416.16,60.35L416.11,56.98L420.06,52.76L422.95,50.98L425.31,50.42L429.58,50.42zM366.52,55.08L368.89,56.80L368.68,62.11L364.60,63.28L351.32,63.28L346.48,61.70L346.62,57.57L348.21,55.66L352.90,53.92L363.01,53.92zM327.40,63.84L330.92,67.91L330.93,71.09L327.82,73.22L321.95,74.36L317.47,74.36L311.01,73.22L308.12,71.44L308.16,67.57L310.86,64.44L316.68,61.50L322.15,61.50z"/></g><g id="ToolTip" visibility="hidden" opacity="0" transform="translate(0,0)"><rect id="ToolTipShadow" opacity="0.20" fill="black" stroke="none" x="0" y="0" width="30" height="8"/><rect id="ToolTipBG" fill="#ffffe1" stroke="black" x="0" y="0" width="30" height="8"/><text xml:space="preserve" id="ToolTipText" fill="black" x="0" y="0" width="30" height="8">tooltip</text></g></g></svg>
