<?xml version="1.0" encoding="UTF-8" standalone="no"?>
<svg xmlns="http://www.w3.org/2000/svg" xmlns:xlink="http://www.w3.org/1999/xlink" width="640.000mm" height="360.000mm" viewBox="0.000000 0.000000 640.000000 360.000000" stroke-linejoin="round" stroke-linecap="round" fill="none" fill-rule="evenodd"><desc>Composer Export</desc><script type="text/ecmascript"><![CDATA[
if(typeof(top) != "undefined")
{
	top.ShowPaper = ShowPaper;
}
function ShowHotSpot(evt,hotspotid)
{
	var svgDocument = evt.target.ownerDocument;
	var strId = "hotspot."+hotspotid;
	var hotspot = svgDocument.getElementById(strId);
	if(hotspot)
		hotspot.setAttribute("opacity",".5");
}
function HideHotSpot(evt,hotspotid)
{
	var svgDocument = evt.target.ownerDocument;
	var strId = "hotspot."+hotspotid;
	var hotspot = svgDocument.getElementById(strId);
	if(hotspot)
		hotspot.setAttribute("opacity","0");

	var toolTip = svgDocument.getElementById('ToolTip');
	if(toolTip)
		toolTip.setAttribute("visibility","hidden");
}
function ShowToolTip(evt,hotspotid,strTooltip)
{
	if(strTooltip=="")
	return;

	// change text
	var svgDocument = evt.target.ownerDocument;
	var tiptext = svgDocument.getElementById('ToolTipText');
	if( !tiptext )
	return;
	tiptext.firstChild.nodeValue = " " + strTooltip + "  " ;

	// show tooltip before, else some refresh issue

	var toolTip = svgDocument.getElementById('ToolTip');
	if(!toolTip)
	return;

	toolTip.setAttribute("visibility","visible");
	toolTip.setAttribute("opacity",".95");

	// move tooltip
	// get viewbox

	var root = svgDocument.documentElement;
	var vbox = (root.getAttribute("viewBox")).split(' ');
	var x0 = parseFloat(vbox[0]);
	var y0 = parseFloat(vbox[1]);
	var vboxW = parseFloat(vbox[2]);
	var vboxH = parseFloat(vbox[3]);

	// get default width of svg

	var strW = root.getAttribute("width");
	var svgW = parseFloat(strW);
	if(strW.indexOf('mm') != -1)
	svgW *= 3.779;

	var strH = root.getAttribute("height");
	var svgH = parseFloat(strH);
	if(strH.indexOf('mm') != -1)
	svgH *= 3.779;  	// 96 dpi  -> 96/25.4 = 3.779

	// update the viewbox / width / height if svg is embedded in html with zoom fit all
	var realx0 = x0;
	var realy0 = y0;
	var realvboxW = vboxW;
	var realvboxH = vboxH;
	var realsvgW = svgW;
	var realsvgH = svgH;

	if ((typeof(top) == "undefined") || (typeof(top.svgctl1) != "undefined")) // embedded in html
	{
		// get window size in pxl

		svgW = window.innerWidth;
		svgH = window.innerHeight;

		// calculate real viewbox

		realsvgW = svgW;
		realsvgH = svgH;
		if((svgW / svgH) > (vboxW / vboxH))
		{
			realvboxW = (vboxH * svgW) / svgH;
			realvboxH = vboxH;
			realx0 = x0 - (realvboxW - vboxW)/2 ;
		}
		else
		{
			realvboxH = (vboxW * svgH) / svgW;
			realvboxW = vboxW;
			realy0 = y0 - (realvboxH - vboxH)/2 ;
		}
	}

	// get user zoom/pan

	var newScale = root.currentScale;
	var translation = root.currentTranslate;

	// transform pxl to user unit

	var xPos = (((evt.clientX+10- translation.x)/newScale) * realvboxW)/realsvgW  + realx0 ;
	var yPos = (((evt.clientY+5- translation.y)/newScale) * realvboxH)/ realsvgH  + realy0 ;
	var scaleForWidth = ( (1 / newScale) * realvboxH) / realsvgH;

	// move tooltip

	toolTip.setAttribute("transform", "translate(" + xPos + "," + yPos + ")" );

	// resize tooltip

	var fontsize = 12;
	tiptext.setAttribute("font-size",fontsize*scaleForWidth);
	tiptext.setAttribute("y", fontsize*scaleForWidth);
	var tipBG = svgDocument.getElementById('ToolTipBG');
	var outline = tiptext.getBBox();
	if(tipBG)
	{
		tipBG.setAttribute("stroke-width", 1*scaleForWidth);
		tipBG.setAttribute("width", Number(outline.width) );
		tipBG.setAttribute("height", Number(outline.height) + fontsize*.5*scaleForWidth );
	}
	var ToolTipShadow = svgDocument.getElementById('ToolTipShadow');
	if(ToolTipShadow)
	{
		ToolTipShadow.setAttribute("width", Number(outline.width) );
		ToolTipShadow.setAttribute("height", Number(outline.height) + fontsize*.5*scaleForWidth );
		ToolTipShadow.setAttribute("x", 3*scaleForWidth);
		ToolTipShadow.setAttribute("y", 3*scaleForWidth);
	}
}
function ShowPaper()
{
  var svgDocument = getDocument();
  var paper = svgDocument.getElementById("paperID");
  if(paper)
  {
    paper.setAttribute("transform","scale(1)");
    paper.setAttribute("opacity","1");
    paper.setAttribute("visibility","visible");
  }
  var svg = svgDocument.getRootElement();
  if(svg)
  {
    svg.setAttribute("width","650.000mm");
    svg.setAttribute("height","370.000mm");
    svg.setAttribute("viewBox","-5.000000 -5.000000 650.000000 370.000000");
  }
}
]]></script><defs/><g><path style="fill:#ffffff" d="M639.96,359.90L0.06,359.90L0.06,0.06L639.96,0.06z"/><path style="fill:#2f2f2f" d="M263.39,84.77L264.04,84.90L300.01,93.99L300.47,94.13L310.16,96.51L311.44,96.85L312.57,96.85L314.09,96.54L314.75,96.41L316.94,95.87L318.84,95.77L320.63,96.14L325.85,97.53L347.44,102.99L431.06,124.28L431.96,124.40L432.77,124.73L433.63,126.06L434.96,128.04L435.44,128.16L438.74,129.04L448.38,131.46L462.89,135.25L463.34,135.36L470.13,137.02L482.36,140.11L485.00,141.20L486.11,142.06L486.97,142.96L487.32,143.97L487.32,145.30L487.19,146.12L486.74,146.76L485.36,148.45L383.52,271.58L382.27,272.97L379.80,274.22L377.52,274.76L376.21,274.85L374.66,274.85L371.73,274.44L349.11,268.74L337.72,259.94L196.89,224.16L197.49,223.95L195.78,224.05L178.88,224.93L175.95,224.84L153.00,219.07L150.93,218.03L149.63,216.91L149.19,216.26L148.97,215.55L148.97,213.99L149.63,212.41L249.19,92.04L253.56,86.97L254.75,85.96L256.87,85.02L257.68,84.89L258.78,84.67L261.40,84.55z"/><path style="fill:#000020" d="M300.47,94.13L300.01,93.99L300.32,93.78L300.91,93.76z"/><path style="fill:#000020" d="M431.96,124.40L431.06,124.28L431.97,124.28z"/><path style="fill:#898989" d="M202.31,237.94L202.51,238.46L203.18,239.74L204.07,240.39L206.14,241.66L206.24,242.16L207.78,243.52L208.25,243.39L208.94,242.36L212.54,242.17L214.96,241.52L217.00,240.49L218.26,239.09L218.38,238.84L226.09,240.81L230.16,241.74L232.01,242.37L231.94,242.67L206.27,273.65L205.26,275.01L205.27,267.78L205.57,265.86L205.36,264.34L205.27,264.26L205.15,257.75L201.19,256.66L186.57,253.02L201.73,234.79L202.07,234.92z"/><path style="fill:#898989" d="M327.26,266.40L327.13,266.52L327.17,269.84L327.39,270.49L328.51,271.79L330.57,273.05L330.95,273.68L331.15,274.00L332.48,275.10L332.80,275.10L333.56,274.29L333.64,273.97L337.21,273.78L339.85,273.12L342.02,271.79L343.10,270.63L343.72,270.57L355.71,273.56L356.88,273.96L330.11,306.24L329.98,306.12L330.03,289.36L319.95,286.72L319.78,286.62L311.28,284.67L326.31,266.60L326.39,266.30z"/><path style="fill:#42d62c" d="M201.19,256.66L205.15,257.75L205.27,264.26L205.27,267.78L205.26,275.01L197.82,284.08L196.94,285.20L196.37,285.21L190.75,283.75L189.85,283.63L178.13,280.58L178.13,279.76L186.42,253.15L186.57,253.02z"/><path style="fill:#42d62c" d="M319.78,286.62L319.95,286.72L330.03,289.36L329.98,306.12L330.11,306.24L330.04,306.56L321.61,316.80L321.04,316.82L315.42,315.35L314.51,315.24L302.80,312.18L302.79,311.60L311.28,284.67z"/><path style="fill:#f3f3f6" d="M300.47,94.13L300.91,93.76L308.38,92.23L309.88,91.96L310.09,95.71L310.16,96.51z"/><path style="fill:#f3f3f6" d="M431.96,124.40L431.97,124.28L434.59,123.74L435.42,123.79L435.44,128.16L434.96,128.04L433.63,126.06L432.77,124.73z"/><path style="fill:#cbcbcb" d="M313.58,90.94L314.13,91.52L314.13,96.15L314.15,96.37L314.09,96.54L312.57,96.85L311.44,96.85L310.16,96.51L310.09,95.71L310.09,91.73L310.42,91.15L311.30,90.71L312.92,90.72z"/><path style="fill:#cbcbcb" d="M439.58,123.41L439.69,124.66L439.57,128.12L438.74,129.04L435.44,128.16L435.42,123.79L435.42,123.57L436.47,122.60L438.69,122.54z"/><path style="fill:#cbcbcb" d="M206.97,241.93L207.64,242.05L208.94,242.36L208.25,243.39L207.78,243.52L206.24,242.16L206.14,241.66z"/><path style="fill:#cbcbcb" d="M194.18,264.12L195.08,265.19L195.62,266.45L195.56,268.85L193.94,268.52L192.43,267.62L191.31,265.67L191.29,264.17L191.62,263.78L192.27,263.65L193.30,263.67z"/><path style="fill:#cbcbcb" d="M193.56,272.89L193.55,273.20L191.81,274.36L191.05,274.19L191.17,274.55L189.77,274.44L188.66,273.75L188.63,273.56L189.93,272.68L191.16,272.33L192.07,272.33L192.64,272.46z"/><path style="fill:#cbcbcb" d="M332.74,273.75L333.40,273.88L333.64,273.97L333.56,274.29L332.80,275.10L332.48,275.10L331.15,274.00L330.95,273.68L331.02,273.28z"/><path style="fill:#cbcbcb" d="M319.29,295.94L320.28,297.84L320.41,298.50L320.42,300.05L320.18,300.49L318.61,300.13L317.54,299.44L316.43,298.14L315.94,296.59L316.13,295.50L317.97,295.28z"/><path style="fill:#cbcbcb" d="M318.40,304.50L318.35,304.70L316.48,305.96L315.71,305.79L316.08,306.16L314.66,306.05L313.80,305.59L313.49,305.14L314.66,304.35L316.05,303.94L316.96,303.94z"/><path style="fill:#898989" d="M354.24,61.61L353.91,61.73L353.98,62.71L352.43,64.70L352.41,65.25L353.07,65.49L354.00,65.91L353.95,66.81L354.31,66.81L357.84,62.56L362.07,63.51L365.26,64.51L365.16,64.65L365.17,71.27L361.78,75.34L362.05,75.60L362.87,75.58L363.98,74.46L364.26,74.46L365.18,74.89L365.05,81.65L347.44,102.99L325.85,97.53L320.63,96.14L320.41,95.52L319.29,94.22L318.38,94.02L318.26,93.90L346.44,59.77L347.15,59.77z"/><path style="fill:#898989" d="M478.94,93.23L478.60,93.63L478.62,94.44L477.08,96.30L477.08,96.85L478.64,97.48L478.56,98.50L478.98,98.42L482.06,94.66L482.87,94.20L489.52,95.90L489.80,96.23L489.83,102.65L489.60,103.31L486.74,106.62L486.66,107.02L486.94,107.21L487.61,107.26L488.21,106.52L488.64,106.29L489.63,106.28L489.85,106.50L490.11,113.09L489.76,113.33L470.13,137.02L463.34,135.36L463.28,135.08L462.89,135.25L448.38,131.46L445.08,126.47L444.18,125.83L443.27,125.63L443.14,125.49L443.64,124.72L470.85,91.79L471.10,91.39L472.05,91.38z"/><path style="fill:#42d62c" d="M357.84,62.56L354.31,66.81L353.95,66.81L354.00,65.91L353.07,65.49L352.41,65.25L352.43,64.70L353.98,62.71L353.91,61.73L354.24,61.61z"/><path style="fill:#42d62c" d="M373.53,70.94L373.74,71.48L365.36,81.58L365.05,81.65L365.18,74.89L364.26,74.46L363.98,74.46L362.87,75.58L362.05,75.60L361.78,75.34L365.17,71.27L365.16,64.65L365.26,64.51L365.61,64.59z"/><path style="fill:#42d62c" d="M482.87,94.20L482.06,94.66L478.98,98.42L478.56,98.50L478.64,97.48L477.08,96.85L477.08,96.30L478.62,94.44L478.60,93.63L478.94,93.23z"/><path style="fill:#42d62c" d="M498.62,102.77L490.11,113.09L489.85,106.50L489.63,106.28L488.64,106.29L488.21,106.52L487.61,107.26L486.94,107.21L486.66,107.02L486.74,106.62L489.60,103.31L489.83,102.65L489.80,96.23L489.52,95.90L490.04,95.98z"/><path style="fill:#a0a0a0" d="M218.38,238.84L218.26,239.09L217.00,240.49L214.96,241.52L212.54,242.17L208.94,242.36L207.64,242.05L206.97,241.93L206.14,241.66L204.07,240.39L203.18,239.74L202.51,238.46L202.31,237.94L202.42,234.84z"/><path style="fill:#a0a0a0" d="M343.09,270.44L343.10,270.63L342.02,271.79L339.85,273.12L337.21,273.78L333.64,273.97L333.40,273.88L332.74,273.75L331.02,273.28L330.57,273.05L328.51,271.79L327.39,270.49L327.17,269.84L327.13,266.52L327.26,266.40z"/><path style="fill:#f3f3f6" d="M318.26,93.90L318.38,94.02L319.29,94.22L320.41,95.52L320.63,96.14L318.84,95.77L316.94,95.87L314.75,96.41L314.15,96.37L314.13,96.15L314.39,93.14L314.73,93.00z"/><path style="fill:#f3f3f6" d="M443.14,125.49L443.27,125.63L444.18,125.83L445.08,126.47L448.38,131.46L438.74,129.04L439.57,128.12L439.69,124.66z"/><path style="fill:#f3f3f6" d="M175.95,224.84L178.88,224.93L195.78,224.05L196.89,224.16L337.72,259.94L349.11,268.74L371.73,274.44L374.66,274.85L376.21,274.85L377.52,274.76L379.80,274.22L382.27,272.97L383.52,271.58L485.36,148.45L486.74,146.76L487.19,146.12L487.32,145.30L487.54,154.32L487.41,154.69L486.46,155.69L385.35,278.02L384.63,278.62L379.73,279.59L378.61,279.46L356.88,273.96L355.71,273.56L343.72,270.57L343.09,270.44L327.26,266.40L326.39,266.30L232.01,242.37L230.16,241.74L226.09,240.81L218.38,238.84L202.42,234.84L201.71,234.66L155.31,222.86L154.46,222.18L153.14,220.21L153.00,219.07z"/><path style="fill:#f3f3f6" d="M177.49,219.78L178.37,220.41L178.14,220.93L176.92,221.52L176.04,221.63L174.94,221.50L173.75,220.87L173.75,220.30L175.06,219.62L176.84,219.56z"/><path style="fill:#f3f3f6" d="M357.48,265.67L357.40,266.31L355.80,266.95L354.46,266.95L353.31,266.52L352.78,265.86L353.45,265.22L354.91,264.87L355.58,264.87L356.16,265.00z"/><path style="fill:#000020" d="M314.40,92.77L314.73,93.00L314.39,93.14L314.13,96.15L314.13,91.52L314.24,91.59z"/><path style="fill:#000020" d="M310.09,95.71L309.88,91.96L310.09,91.73z"/><path style="fill:#000020" d="M314.09,96.54L314.15,96.37L314.75,96.41z"/><path style="fill:#000020" d="M435.42,123.79L434.59,123.74L435.42,123.57z"/><path style="fill:#000020" d="M463.34,135.36L462.89,135.25L463.28,135.08z"/><path style="fill:#000020" d="M487.63,145.16L487.54,154.32L487.32,145.30L487.32,143.97z"/><path style="fill:#000020" d="M196.89,224.16L195.78,224.05L197.49,223.95z"/><path style="fill:#000020" d="M201.73,234.79L201.71,234.66L202.42,234.84L202.31,237.94L202.07,234.92z"/><path style="fill:#000020" d="M205.57,265.86L205.27,267.78L205.27,264.26L205.36,264.34z"/><path style="fill:#000020" d="M195.71,268.81L195.56,268.85L195.62,266.45L195.71,266.52z"/><path style="fill:#000020" d="M343.72,270.57L343.10,270.63L343.09,270.44z"/><path style="fill:#000020" d="M330.57,273.05L331.02,273.28L330.95,273.68z"/><path style="fill:#000020" d="M191.81,274.36L191.75,274.51L191.17,274.55L191.05,274.19z"/><path style="fill:#000020" d="M320.41,298.50L320.28,297.84L320.39,297.92z"/><path style="fill:#000020" d="M320.40,300.64L320.18,300.49L320.42,300.05z"/><path style="fill:#000020" d="M316.48,305.96L316.08,306.16L315.71,305.79z"/><g id="Actor_.0"><g style="stroke:#000020;stroke-width:0.353"><path d="M314.58,315.09 L314.58,315.20 L314.05,314.96 "/><path d="M314.58,315.20 L315.49,315.32 "/></g></g><g id="Actor_.1"><g style="stroke:#000020;stroke-width:0.353"><path d="M330.92,273.18 L330.92,273.65 L331.58,274.39 L332.18,274.92 L332.76,275.30 "/><path d="M333.44,274.48 L333.44,273.83 "/></g></g><g id="Actor_.2"><g style="stroke:#000020;stroke-width:0.353"><path d="M194.58,267.78 C194.43,267.69 194.43,267.69 194.27,267.61 C194.11,267.55 194.11,267.55 193.95,267.49 C193.77,267.46 193.77,267.46 193.59,267.43 C193.36,267.42 193.36,267.42 193.14,267.42 "/><path d="M193.14,265.13 C193.08,265.22 193.08,265.22 193.02,265.31 C192.94,265.41 192.94,265.41 192.87,265.51 C192.77,265.63 192.77,265.63 192.68,265.76 "/><path d="M192.42,266.09 C192.55,266.23 192.55,266.23 192.68,266.36 C192.78,266.50 192.78,266.50 192.87,266.65 C192.95,266.82 192.95,266.82 193.02,266.99 C193.08,267.20 193.08,267.20 193.14,267.42 "/><path d="M194.39,268.75 C193.98,268.59 193.98,268.59 193.58,268.43 C193.20,268.21 193.19,268.22 192.82,267.99 C192.39,267.58 192.39,267.58 191.98,267.15 C191.68,266.64 191.67,266.63 191.40,266.10 "/><path d="M193.61,265.10 C193.86,265.15 193.86,265.15 194.11,265.22 C194.35,265.35 194.35,265.36 194.58,265.50 C194.78,265.69 194.78,265.69 194.96,265.89 C195.09,266.12 195.10,266.12 195.21,266.35 "/><path d="M194.58,267.78 C194.71,267.62 194.71,267.62 194.84,267.45 C194.93,267.32 194.93,267.32 195.03,267.20 C195.10,267.10 195.10,267.10 195.18,267.00 C195.24,266.91 195.24,266.91 195.30,266.82 "/><path d="M195.30,266.82 C195.24,266.61 195.24,266.61 195.18,266.39 C195.11,266.22 195.11,266.22 195.03,266.05 C194.94,265.91 194.94,265.91 194.84,265.77 C194.71,265.63 194.71,265.63 194.58,265.50 C194.43,265.41 194.43,265.41 194.27,265.32 C194.11,265.26 194.11,265.26 193.95,265.21 C193.77,265.18 193.77,265.18 193.59,265.15 C193.36,265.14 193.36,265.14 193.14,265.13 "/><path d="M195.71,267.00 L195.55,267.63 L195.03,268.09 L194.28,268.24 L193.44,268.02 L192.69,267.50 L192.17,266.78 L191.99,265.98 L192.17,265.29 L192.69,264.82 L193.44,264.68 L194.28,264.89 L195.03,265.41 L195.55,266.14 L195.69,266.75 "/><path d="M193.14,267.42 L193.61,267.69 L194.11,267.82 L194.58,267.78 "/><path d="M193.14,267.42 L192.76,267.03 L192.51,266.57 L192.42,266.09 L192.51,265.66 L192.76,265.33 L193.14,265.13 "/><path d="M192.68,265.76 L192.42,266.09 "/><path d="M193.14,267.42 L193.80,266.62 L193.08,265.30 L193.20,265.14 "/><path d="M191.40,266.10 L191.28,265.64 L191.11,264.59 L191.22,263.94 "/><path d="M192.42,266.09 L193.08,265.30 "/><path d="M193.14,265.13 L193.61,265.10 "/><path d="M195.21,266.35 L195.30,266.82 L195.21,267.25 L194.96,267.59 L194.58,267.78 "/><path d="M195.68,268.87 L195.36,268.88 L194.39,268.75 "/><path d="M193.80,266.62 L195.19,266.97 "/></g></g><g id="Actor_.3"><g style="stroke:#000020;stroke-width:0.353"><path d="M153.74,219.14 C152.95,218.90 152.95,218.89 152.16,218.62 C151.49,218.28 151.49,218.28 150.83,217.91 C150.32,217.50 150.31,217.50 149.82,217.06 C149.49,216.59 149.49,216.59 149.18,216.10 "/><path d="M149.18,215.53 C149.49,216.02 149.49,216.02 149.82,216.49 C150.31,216.93 150.32,216.93 150.83,217.34 C151.49,217.71 151.49,217.71 152.16,218.05 C152.95,218.32 152.95,218.32 153.74,218.57 "/><path d="M487.07,143.36 C486.77,142.87 486.76,142.87 486.43,142.40 C485.94,141.96 485.93,141.96 485.42,141.55 C484.77,141.18 484.76,141.18 484.09,140.84 C483.31,140.57 483.30,140.56 482.51,140.31 "/><path d="M482.51,140.31 C459.12,134.39 459.12,134.39 435.74,128.46 C435.46,128.37 435.46,128.37 435.19,128.27 C434.96,128.14 434.96,128.14 434.75,128.00 C434.60,127.84 434.60,127.84 434.46,127.67 C433.60,126.23 433.60,126.23 432.75,124.78 "/><path d="M318.00,95.71 C315.47,96.30 315.47,96.30 312.94,96.88 C312.62,96.93 312.62,96.93 312.30,96.97 C311.97,96.98 311.97,96.98 311.64,96.97 C311.33,96.92 311.33,96.92 311.01,96.86 "/><path d="M311.01,96.86 C287.63,90.93 287.63,90.93 264.24,85.01 C263.37,84.84 263.37,84.84 262.49,84.69 C261.57,84.64 261.57,84.64 260.65,84.60 C259.74,84.66 259.74,84.66 258.83,84.73 C257.96,84.90 257.96,84.90 257.10,85.09 C256.31,85.37 256.30,85.37 255.52,85.67 C254.90,86.01 254.89,86.01 254.28,86.38 C253.80,86.81 253.79,86.81 253.33,87.26 C201.49,149.88 201.49,149.89 149.68,212.54 C149.38,213.01 149.38,213.01 149.11,213.50 "/><path d="M177.91,219.87 C177.50,219.69 177.50,219.69 177.09,219.54 C176.60,219.46 176.60,219.46 176.10,219.41 C175.60,219.44 175.60,219.44 175.10,219.50 C174.67,219.63 174.67,219.63 174.24,219.79 "/><path d="M174.11,221.25 C174.51,221.42 174.52,221.42 174.93,221.58 C175.42,221.65 175.42,221.65 175.91,221.71 C176.41,221.67 176.41,221.67 176.91,221.62 C177.34,221.48 177.35,221.48 177.77,221.32 "/><path d="M177.91,219.30 C177.50,219.12 177.50,219.12 177.09,218.97 C176.60,218.89 176.60,218.89 176.10,218.84 C175.60,218.87 175.60,218.87 175.10,218.93 C174.67,219.06 174.67,219.06 174.24,219.22 "/><path d="M348.94,268.60 C360.47,271.53 360.47,271.54 372.01,274.45 C372.89,274.62 372.89,274.62 373.76,274.77 C374.68,274.82 374.68,274.82 375.60,274.86 C376.51,274.80 376.52,274.80 377.43,274.73 C378.29,274.56 378.29,274.56 379.16,274.37 C379.93,274.10 379.93,274.10 380.70,273.81 C381.34,273.46 381.35,273.46 381.97,273.08 C382.46,272.65 382.46,272.65 382.92,272.20 "/><path d="M348.94,268.03 C360.47,270.96 360.47,270.96 372.01,273.88 C372.89,274.05 372.89,274.05 373.76,274.19 C374.68,274.25 374.68,274.25 375.60,274.29 C376.51,274.23 376.52,274.23 377.43,274.16 C378.29,273.99 378.29,273.99 379.16,273.80 C379.93,273.53 379.93,273.53 380.70,273.24 C381.34,272.88 381.35,272.88 381.97,272.50 C382.46,272.08 382.46,272.08 382.92,271.63 "/><path d="M353.37,265.18 C353.80,265.02 353.80,265.02 354.24,264.88 C354.73,264.83 354.74,264.83 355.24,264.80 C355.73,264.85 355.73,264.85 356.22,264.92 C356.63,265.08 356.64,265.08 357.04,265.25 "/><path d="M353.24,266.63 C353.64,266.81 353.65,266.81 354.06,266.96 C354.55,267.04 354.55,267.04 355.05,267.09 C355.54,267.06 355.55,267.06 356.04,267.00 C356.48,266.87 356.48,266.87 356.91,266.71 "/><path d="M357.04,264.68 C356.64,264.51 356.63,264.51 356.22,264.35 C355.73,264.28 355.73,264.28 355.24,264.22 C354.74,264.26 354.73,264.26 354.24,264.31 C353.80,264.45 353.80,264.45 353.37,264.61 "/><path d="M149.18,216.10 L148.94,215.09 L148.95,214.57 L149.18,215.53 "/><path d="M153.74,218.57 L153.74,219.14 L176.81,224.99 L176.81,224.42 L153.74,218.57 "/><path d="M487.32,144.37 L487.32,144.94 L487.14,145.95 L486.57,146.92 L486.57,146.35 L487.14,145.38 L487.32,144.37 L487.07,143.36 "/><path d="M432.75,124.78 L318.00,95.71 "/><path d="M149.11,213.50 L148.95,214.57 "/><path d="M178.50,220.56 L178.44,220.34 L177.91,219.87 "/><path d="M174.24,219.79 L173.65,220.25 L173.51,220.56 "/><path d="M177.77,221.32 L178.37,220.87 L178.60,220.32 L178.44,219.77 L177.91,219.30 "/><path d="M174.24,219.22 L173.65,219.67 L173.41,220.22 L173.58,220.77 L174.11,221.25 "/><path d="M176.81,224.42 L197.31,223.35 L337.01,258.74 L348.94,268.03 L348.94,268.60 L337.01,259.32 L337.01,258.74 "/><path d="M197.31,223.35 L197.31,223.92 L176.81,224.99 "/><path d="M337.01,259.32 L197.31,223.92 "/><path d="M382.92,272.20 L486.57,146.92 "/><path d="M382.92,271.63 L382.92,272.20 "/><path d="M352.65,265.95 L352.78,265.63 L353.37,265.18 "/><path d="M357.04,265.25 L357.57,265.73 L357.63,265.94 "/><path d="M352.78,265.06 L352.55,265.61 L352.71,266.16 L353.24,266.63 "/><path d="M356.91,266.71 L357.50,266.26 L357.73,265.71 L357.57,265.16 L357.04,264.68 "/><path d="M353.37,264.61 L352.78,265.06 "/><path d="M372.01,273.88 L372.01,274.45 "/><path d="M382.92,271.63 L486.57,146.35 "/></g></g><g id="Actor_.4"><g style="stroke:#000020;stroke-width:0.353"><path d="M337.78,259.92 L195.99,223.99 "/><path d="M487.25,145.36 L487.26,145.27 "/></g></g><g id="Actor_.5"><g style="stroke:#000020;stroke-width:0.353"><path d="M315.08,304.24 C315.48,304.12 315.48,304.11 315.89,304.01 C316.35,304.00 316.35,304.00 316.81,304.00 C317.23,304.10 317.23,304.10 317.64,304.21 "/><path d="M315.10,305.62 C315.29,305.74 315.29,305.74 315.49,305.84 C315.74,305.91 315.74,305.91 315.99,305.96 C316.26,305.98 316.27,305.98 316.54,305.99 "/><path d="M313.33,305.23 C313.72,304.93 313.72,304.93 314.13,304.64 C314.43,304.46 314.43,304.45 314.74,304.28 C315.05,304.19 315.06,304.19 315.38,304.12 "/><path d="M316.81,304.00 C317.19,304.08 317.19,304.08 317.58,304.16 C317.85,304.24 317.85,304.24 318.11,304.32 C318.32,304.44 318.32,304.44 318.52,304.56 "/><path d="M317.68,304.61 C317.49,304.63 317.49,304.63 317.30,304.65 C317.13,304.63 317.13,304.63 316.96,304.60 C316.79,304.54 316.79,304.54 316.62,304.48 C316.43,304.36 316.43,304.36 316.24,304.24 "/><path d="M316.24,304.24 C316.07,304.38 316.07,304.38 315.90,304.51 C315.75,304.60 315.75,304.60 315.60,304.67 C315.44,304.72 315.44,304.72 315.29,304.75 C315.12,304.76 315.12,304.76 314.95,304.75 "/><path d="M314.95,304.75 C315.10,304.62 315.10,304.62 315.26,304.50 C315.48,304.41 315.49,304.41 315.71,304.32 C315.97,304.28 315.98,304.28 316.24,304.24 "/><path d="M316.24,304.24 C316.51,304.25 316.52,304.25 316.79,304.27 C317.04,304.33 317.04,304.33 317.29,304.39 C317.49,304.50 317.49,304.50 317.68,304.61 "/><path d="M315.89,306.21 L315.14,306.02 L314.55,305.63 L314.33,305.14 L314.52,304.64 L315.08,304.24 "/><path d="M317.64,304.21 L318.23,304.60 L318.32,304.80 "/><path d="M315.10,305.62 L315.06,305.53 L315.02,305.36 L314.99,305.12 L314.95,304.75 L314.81,305.05 L314.86,305.35 L315.10,305.62 "/><path d="M316.54,305.99 L316.70,305.97 "/><path d="M313.27,305.30 L313.33,305.23 "/><path d="M315.38,304.12 L315.89,304.01 L316.39,303.96 L316.45,303.96 L316.81,304.00 "/><path d="M317.77,305.29 L317.76,305.22 L317.72,304.97 L317.68,304.61 "/><path d="M316.24,304.24 L316.24,305.56 L317.07,305.77 "/><path d="M316.24,305.56 L315.52,305.85 "/><path d="M317.68,304.61 L317.68,305.36 "/><path d="M317.96,305.13 L317.92,304.88 L317.68,304.61 "/></g></g><g id="Actor_.6"><g style="stroke:#000020;stroke-width:0.353"><path d="M311.28,92.98 C311.72,93.04 311.72,93.04 312.17,93.08 C312.62,93.03 312.62,93.03 313.06,92.96 C313.42,92.81 313.42,92.81 313.77,92.64 "/><path d="M311.28,96.91 L311.28,92.98 L310.55,92.67 L310.14,92.22 L310.12,91.71 L310.12,96.05 "/><path d="M310.12,91.71 L310.50,91.25 L310.88,91.01 L310.43,91.42 L310.38,91.89 L310.72,92.32 L311.39,92.61 L311.28,92.98 "/><path d="M313.77,92.64 L314.15,92.18 L314.15,96.52 "/><path d="M311.39,92.61 L312.23,92.70 L313.05,92.56 L313.65,92.23 L313.91,91.78 L313.76,91.32 L313.24,90.94 L312.84,90.84 L312.47,90.75 L311.61,90.77 L310.88,91.01 "/><path d="M314.15,92.18 L314.13,91.67 L313.72,91.22 L313.24,90.94 "/></g></g><g id="Actor_.7"><g style="stroke:#000020;stroke-width:0.353"><path d="M189.32,283.35 L189.85,283.60 L190.76,283.72 "/><path d="M189.85,283.60 L189.85,283.49 "/></g></g><g id="Actor_.8"><g style="stroke:#000020;stroke-width:0.353"><path d="M215.78,238.64 C215.02,238.93 215.02,238.93 214.24,239.20 C213.38,239.39 213.38,239.39 212.51,239.56 C211.60,239.64 211.60,239.64 210.69,239.69 C209.77,239.66 209.77,239.66 208.85,239.60 C207.98,239.45 207.97,239.45 207.10,239.28 C206.31,239.03 206.31,239.03 205.52,238.75 C205.04,238.51 205.05,238.50 204.57,238.25 C204.38,238.15 204.38,238.15 204.19,238.05 C203.68,237.63 203.67,237.63 203.18,237.19 C202.85,236.73 202.85,236.72 202.54,236.24 "/><path d="M202.54,238.75 C202.85,239.24 202.85,239.24 203.18,239.71 C203.67,240.14 203.68,240.15 204.19,240.56 C204.85,240.93 204.85,240.93 205.52,241.27 C206.31,241.54 206.31,241.54 207.10,241.79 C207.97,241.96 207.98,241.96 208.85,242.11 C209.77,242.17 209.77,242.17 210.69,242.21 C211.60,242.15 211.60,242.15 212.51,242.07 C213.38,241.91 213.38,241.91 214.24,241.72 C215.02,241.45 215.02,241.45 215.78,241.16 C216.43,240.80 216.43,240.80 217.06,240.42 C217.54,240.00 217.55,239.99 218.01,239.55 "/><path d="M203.41,236.28 C203.82,236.72 203.83,236.72 204.27,237.14 C204.85,237.52 204.86,237.52 205.46,237.88 C206.19,238.17 206.19,238.17 206.93,238.44 C207.76,238.63 207.76,238.63 208.59,238.79 C209.47,238.87 209.47,238.87 210.36,238.93 C211.25,238.90 211.25,238.90 212.13,238.84 C212.98,238.69 212.98,238.69 213.82,238.52 C214.55,238.28 214.55,238.28 215.27,238.02 "/><path d="M204.19,240.56 C204.82,240.94 204.82,240.94 205.46,241.30 C206.19,241.60 206.19,241.60 206.93,241.86 C207.76,242.05 207.76,242.05 208.59,242.22 C209.47,242.30 209.47,242.30 210.36,242.36 C211.25,242.32 211.25,242.32 212.13,242.27 C212.98,242.12 212.98,242.12 213.82,241.95 C214.58,241.70 214.58,241.70 215.33,241.42 C215.97,241.09 215.96,241.07 216.59,240.72 C216.82,240.57 216.83,240.57 217.06,240.42 "/><path d="M214.22,238.00 C213.61,238.17 213.60,238.17 212.98,238.33 C212.32,238.44 212.31,238.44 211.65,238.53 C210.96,238.56 210.96,238.56 210.27,238.57 C209.59,238.53 209.58,238.53 208.90,238.47 C208.25,238.36 208.25,238.36 207.60,238.22 C207.00,238.04 207.00,238.04 206.40,237.84 C205.88,237.59 205.88,237.59 205.37,237.33 C204.95,237.04 204.94,237.04 204.53,236.73 C204.22,236.39 204.22,236.39 203.93,236.04 C203.74,235.68 203.74,235.67 203.58,235.30 "/><path d="M216.38,238.30 L215.78,238.64 "/><path d="M202.54,236.24 L202.30,235.23 L202.30,237.74 L202.54,238.75 "/><path d="M218.01,239.55 L218.01,238.71 "/><path d="M202.91,234.88 L202.93,235.33 L203.41,236.28 "/><path d="M202.38,234.75 L202.30,235.23 "/><path d="M214.59,237.84 L214.22,238.00 "/><path d="M203.58,235.30 L203.55,235.05 "/><path d="M218.01,239.55 L218.44,238.82 "/></g></g><g id="Actor_.9"><g style="stroke:#000020;stroke-width:0.353"><path d="M314.15,92.96 C316.57,93.56 316.57,93.56 318.98,94.18 C319.20,94.27 319.20,94.28 319.42,94.38 C319.62,94.53 319.62,94.53 319.81,94.70 "/><path d="M448.60,131.72 C446.83,129.07 446.83,129.06 445.04,126.42 C444.86,126.26 444.85,126.26 444.65,126.11 C444.42,126.00 444.42,126.00 444.18,125.90 C441.87,125.31 441.87,125.31 439.56,124.73 "/><path d="M155.08,222.66 L155.12,222.69 L154.71,222.37 L154.71,219.39 "/><path d="M155.12,222.69 L155.42,222.79 L155.42,219.57 "/><path d="M154.71,222.37 L153.07,219.94 L153.07,218.92 "/><path d="M153.07,219.94 L152.99,219.74 L152.99,218.90 "/><path d="M155.22,222.76 L155.54,222.88 L155.42,222.79 L378.90,279.41 L379.01,279.50 L379.57,279.56 L379.85,279.52 L379.95,279.44 L384.34,278.53 L384.24,278.62 L384.77,278.38 "/><path d="M155.54,222.88 L379.01,279.50 "/><path d="M177.49,219.70 L176.60,219.47 "/><path d="M338.53,260.50 L194.69,224.06 "/><path d="M337.78,259.91 L195.99,223.99 "/><path d="M299.88,94.04 L309.70,92.02 L310.12,91.99 "/><path d="M319.81,94.70 L319.42,94.38 "/><path d="M319.55,94.52 L320.84,96.43 "/><path d="M319.81,94.70 L321.01,96.47 "/><path d="M356.62,265.09 L355.73,264.86 "/><path d="M378.90,274.42 L378.90,279.41 L379.60,279.48 L379.95,279.44 L379.95,274.08 "/><path d="M379.85,279.52 L384.24,278.62 "/><path d="M384.34,270.49 L384.34,278.53 L384.92,278.30 L385.11,278.14 L385.11,269.56 "/><path d="M384.71,278.43 L384.92,278.30 "/><path d="M385.11,278.14 L487.42,154.46 L487.42,145.78 L487.53,145.59 L487.54,145.43 L487.54,154.08 L487.53,154.28 L487.42,154.46 "/><path d="M435.53,123.73 L434.93,123.75 L431.47,124.46 "/><path d="M448.43,131.68 L444.78,126.25 "/><path d="M444.94,126.36 L444.65,126.11 "/><path d="M486.80,146.53 L487.42,145.78 L487.22,145.54 "/><path d="M487.24,145.36 L487.26,145.25 "/><path d="M487.54,145.43 L487.46,145.20 L487.29,145.09 "/><path d="M487.41,145.16 L487.31,144.98 "/></g></g><g id="Actor_.10"><g style="stroke:#000020;stroke-width:0.353"><path d="M439.18,124.41 C438.83,124.58 438.83,124.59 438.48,124.74 C438.04,124.81 438.03,124.81 437.59,124.86 C437.14,124.82 437.14,124.82 436.69,124.75 "/><path d="M436.29,122.79 C436.65,122.66 436.66,122.66 437.03,122.55 C437.45,122.52 437.46,122.52 437.88,122.52 C438.27,122.61 438.27,122.61 438.66,122.72 "/><path d="M435.53,127.83 L435.53,123.49 L435.55,123.99 L435.96,124.45 L436.69,124.75 L436.69,128.70 "/><path d="M439.56,128.29 L439.56,123.95 L439.18,124.41 "/><path d="M436.69,124.75 L436.80,124.39 L436.14,124.09 L435.79,123.66 L435.85,123.19 L436.29,122.79 L435.91,123.03 L435.53,123.49 "/><path d="M436.80,124.39 L437.64,124.48 L438.46,124.34 L439.07,124.01 L439.33,123.56 L439.18,123.09 L438.66,122.72 L439.13,122.99 L439.54,123.44 L439.56,123.95 "/></g></g><g id="Actor_.11"><g style="stroke:#000020;stroke-width:0.353"><path d="M328.92,272.16 C329.55,272.54 329.55,272.54 330.19,272.91 C330.92,273.20 330.92,273.20 331.66,273.47 C332.48,273.66 332.49,273.66 333.32,273.82 C334.20,273.90 334.20,273.90 335.09,273.96 C335.97,273.92 335.98,273.92 336.86,273.87 C337.71,273.72 337.71,273.72 338.55,273.55 C339.31,273.30 339.31,273.30 340.06,273.03 C340.69,272.69 340.69,272.68 341.31,272.32 C341.55,272.17 341.55,272.17 341.79,272.02 "/><path d="M341.79,272.02 C341.16,272.40 341.16,272.40 340.51,272.76 C339.75,273.05 339.74,273.05 338.97,273.32 C338.11,273.51 338.11,273.50 337.24,273.67 C336.69,273.72 336.69,273.71 336.13,273.75 C335.77,273.78 335.77,273.79 335.42,273.81 C334.50,273.77 334.50,273.77 333.58,273.71 C332.70,273.56 332.70,273.56 331.83,273.39 C331.04,273.14 331.03,273.14 330.25,272.87 C329.58,272.53 329.58,272.53 328.92,272.16 C328.41,271.75 328.40,271.75 327.91,271.31 C327.58,270.84 327.57,270.84 327.27,270.35 "/><path d="M327.27,267.84 C327.58,268.32 327.58,268.33 327.91,268.79 C328.26,269.11 328.27,269.10 328.63,269.40 C328.78,269.53 328.77,269.53 328.92,269.65 C329.58,270.01 329.58,270.01 330.25,270.35 C331.03,270.63 331.04,270.63 331.83,270.88 C332.70,271.05 332.70,271.05 333.58,271.20 C334.50,271.26 334.50,271.26 335.42,271.29 C336.33,271.24 336.33,271.24 337.24,271.16 C338.11,270.99 338.11,270.99 338.97,270.80 C339.74,270.54 339.75,270.53 340.51,270.24 C340.81,270.08 340.82,270.08 341.11,269.90 "/><path d="M338.95,269.60 C338.33,269.77 338.33,269.77 337.71,269.93 C337.04,270.04 337.04,270.04 336.37,270.13 C335.69,270.16 335.69,270.16 335.00,270.18 C334.66,270.16 334.66,270.15 334.33,270.13 C333.98,270.10 333.98,270.11 333.63,270.07 C332.98,269.95 332.97,269.96 332.32,269.83 C331.73,269.64 331.73,269.63 331.13,269.44 C331.09,269.42 331.09,269.42 331.06,269.40 C330.58,269.17 330.57,269.18 330.10,268.93 C329.67,268.64 329.67,268.64 329.26,268.33 C328.95,267.99 328.95,267.99 328.66,267.64 C328.47,267.28 328.47,267.27 328.30,266.90 "/><path d="M328.14,267.88 C328.55,268.32 328.56,268.32 328.99,268.74 C329.58,269.12 329.59,269.12 330.19,269.48 C330.92,269.77 330.92,269.77 331.66,270.04 C332.48,270.23 332.49,270.23 333.32,270.40 C334.20,270.48 334.20,270.48 335.09,270.53 C335.97,270.50 335.98,270.50 336.86,270.44 C337.71,270.29 337.71,270.29 338.55,270.12 C339.28,269.88 339.28,269.88 340.00,269.62 "/><path d="M327.27,270.35 L327.03,269.34 L327.03,266.83 L327.27,267.84 "/><path d="M327.11,266.35 L327.03,266.83 "/><path d="M339.32,269.45 L338.95,269.60 "/><path d="M328.30,266.90 L328.28,266.65 "/><path d="M327.63,266.49 L327.66,266.93 L328.14,267.88 "/><path d="M341.79,272.02 L342.74,271.15 L342.74,270.31 "/><path d="M342.74,271.15 L343.17,270.42 "/></g></g><g id="Actor_.12"><g style="stroke:#000020;stroke-width:0.353"><path d="M188.60,273.63 C189.00,273.33 189.00,273.33 189.40,273.04 C189.70,272.86 189.70,272.85 190.01,272.68 C190.32,272.59 190.33,272.59 190.65,272.51 "/><path d="M191.51,272.64 C191.34,272.78 191.34,272.78 191.17,272.91 C191.02,272.99 191.02,273.00 190.87,273.07 C190.72,273.12 190.71,273.12 190.56,273.15 C190.39,273.15 190.39,273.15 190.22,273.15 "/><path d="M190.37,274.02 C190.56,274.13 190.56,274.14 190.76,274.24 C191.01,274.31 191.01,274.31 191.26,274.36 C191.54,274.38 191.54,274.38 191.81,274.39 "/><path d="M190.22,273.15 C190.37,273.02 190.37,273.02 190.53,272.90 C190.75,272.81 190.76,272.81 190.98,272.72 C191.25,272.68 191.25,272.68 191.51,272.64 "/><path d="M191.51,272.64 C191.70,272.76 191.70,272.76 191.89,272.87 C192.06,272.94 192.06,272.94 192.23,273.00 C192.40,273.03 192.40,273.03 192.57,273.05 C192.76,273.03 192.76,273.03 192.95,273.01 "/><path d="M192.95,273.01 C192.76,272.90 192.76,272.89 192.56,272.79 C192.31,272.72 192.31,272.72 192.06,272.67 C191.79,272.65 191.79,272.65 191.51,272.64 "/><path d="M188.54,273.70 L188.60,273.63 "/><path d="M190.65,272.51 L191.16,272.41 L190.35,272.64 L189.79,273.04 L189.60,273.54 L189.83,274.03 L190.41,274.42 L191.17,274.61 "/><path d="M192.34,274.17 L191.51,273.96 L190.79,274.24 "/><path d="M191.51,273.96 L191.51,272.64 "/><path d="M190.22,273.15 L190.08,273.44 L190.13,273.75 L190.37,274.02 "/><path d="M191.81,274.39 L191.97,274.36 "/><path d="M190.37,274.02 L190.33,273.93 L190.30,273.76 L190.26,273.52 L190.22,273.15 "/><path d="M192.95,273.01 L192.99,273.37 L193.03,273.62 L193.04,273.68 "/><path d="M193.79,272.96 L193.38,272.72 L192.85,272.56 L192.08,272.40 L191.73,272.36 L191.66,272.36 L191.16,272.41 L192.08,272.40 L192.91,272.61 L193.50,273.00 L193.59,273.20 "/><path d="M193.23,273.53 L193.19,273.28 L192.95,273.01 L192.95,273.76 "/></g></g><g id="Actor_.13"><g style="stroke:#000020;stroke-width:0.353"><path d="M206.19,241.58 L206.19,242.05 L206.86,242.79 L207.45,243.32 L208.03,243.70 "/><path d="M208.71,242.87 L208.71,242.23 "/></g></g><g id="Actor_.14"><g style="stroke:#000020;stroke-width:0.353"><path d="M471.21,91.54 L471.21,91.34 L489.92,96.08 L489.92,113.21 L498.49,102.86 L489.92,96.08 "/><path d="M489.78,113.18 L489.92,113.21 "/></g></g><g id="Actor_.15"><g style="stroke:#000020;stroke-width:0.353"><path d="M187.92,268.17 C188.15,267.57 188.15,267.56 188.39,266.97 C188.71,266.42 188.71,266.42 189.03,265.88 C189.41,265.41 189.41,265.40 189.80,264.95 C190.23,264.58 190.23,264.58 190.67,264.23 C191.12,263.98 191.12,263.98 191.58,263.75 C192.04,263.64 192.04,263.63 192.50,263.54 C192.94,263.57 192.94,263.57 193.37,263.62 "/><path d="M194.16,263.97 C194.50,264.26 194.51,264.26 194.83,264.57 C195.09,264.98 195.09,264.99 195.33,265.41 C195.51,265.91 195.51,265.92 195.66,266.43 C195.73,267.00 195.73,267.01 195.78,267.58 C195.74,268.20 195.74,268.20 195.69,268.82 C195.56,269.44 195.56,269.44 195.40,270.06 C195.18,270.67 195.17,270.67 194.93,271.26 C194.62,271.81 194.62,271.82 194.29,272.36 C193.91,272.83 193.91,272.83 193.52,273.29 C193.10,273.65 193.09,273.66 192.66,274.01 C192.21,274.25 192.20,274.26 191.74,274.48 C191.29,274.60 191.28,274.60 190.82,274.69 C190.39,274.66 190.38,274.66 189.95,274.61 "/><path d="M189.16,274.27 C188.82,273.97 188.82,273.97 188.49,273.66 C188.23,273.25 188.23,273.25 187.99,272.82 C187.82,272.31 187.82,272.31 187.67,271.79 C187.60,271.22 187.60,271.22 187.55,270.65 C187.58,270.03 187.58,270.03 187.63,269.42 C187.77,268.79 187.77,268.79 187.92,268.17 "/><path d="M187.92,268.17 C188.20,268.36 188.20,268.36 188.49,268.55 C188.88,268.77 188.88,268.77 189.28,268.97 C189.75,269.19 189.75,269.19 190.23,269.41 C190.75,269.61 190.75,269.61 191.27,269.82 C191.81,270.00 191.81,270.00 192.35,270.18 C192.86,270.33 192.86,270.33 193.37,270.47 C193.83,270.58 193.83,270.58 194.28,270.67 C194.65,270.72 194.65,270.72 195.02,270.77 C195.07,270.76 195.07,270.76 195.13,270.76 "/><path d="M178.02,280.49 L186.59,253.00 L205.30,257.74 L196.73,285.23 L178.02,280.49 "/><path d="M191.26,265.51 L191.24,265.48 L191.06,264.37 L187.92,268.17 "/><path d="M193.37,263.62 L194.16,263.97 "/><path d="M189.95,274.61 L189.16,274.27 "/><path d="M193.37,270.47 L193.37,272.72 "/><path d="M191.06,264.37 L191.13,263.99 "/><path d="M196.73,285.23 L205.30,274.88 L205.30,257.74 "/></g></g><g id="Actor_.16"><g style="stroke:#000020;stroke-width:0.353"><path d="M317.87,299.02 C318.09,299.02 318.09,299.02 318.32,299.04 C318.50,299.06 318.50,299.06 318.68,299.10 C318.84,299.15 318.84,299.15 319.00,299.21 C319.15,299.29 319.15,299.29 319.31,299.39 "/><path d="M317.87,299.02 C317.81,298.80 317.81,298.80 317.75,298.59 C317.67,298.42 317.67,298.42 317.60,298.25 C317.50,298.11 317.50,298.10 317.41,297.96 C317.28,297.83 317.28,297.83 317.15,297.70 "/><path d="M317.87,296.74 C317.81,296.82 317.81,296.82 317.75,296.91 C317.67,297.01 317.67,297.01 317.60,297.11 C317.50,297.23 317.50,297.23 317.41,297.36 "/><path d="M319.12,300.35 C318.71,300.19 318.71,300.19 318.31,300.03 C317.93,299.82 317.92,299.82 317.55,299.59 C317.12,299.18 317.12,299.18 316.71,298.75 C316.41,298.24 316.40,298.23 316.13,297.70 "/><path d="M319.31,299.39 C319.44,299.22 319.44,299.22 319.57,299.05 C319.66,298.92 319.66,298.92 319.76,298.80 C319.83,298.70 319.83,298.70 319.91,298.60 C319.97,298.51 319.97,298.51 320.03,298.43 "/><path d="M319.94,297.95 C319.82,297.72 319.82,297.72 319.69,297.49 C319.51,297.29 319.50,297.29 319.31,297.10 C319.08,296.96 319.08,296.95 318.84,296.82 C318.59,296.75 318.59,296.75 318.34,296.70 "/><path d="M317.87,296.74 C318.09,296.74 318.09,296.74 318.32,296.75 C318.50,296.78 318.50,296.78 318.68,296.81 C318.84,296.86 318.84,296.86 319.00,296.92 C319.15,297.01 319.16,297.01 319.31,297.10 C319.44,297.23 319.44,297.23 319.57,297.37 C319.66,297.51 319.66,297.51 319.76,297.66 C319.83,297.82 319.83,297.82 319.91,297.99 C319.97,298.21 319.97,298.21 320.03,298.43 "/><path d="M320.42,298.36 L320.27,297.74 L319.75,297.02 L319.00,296.49 L318.17,296.28 L317.61,296.39 L317.42,296.42 L316.90,296.89 L316.72,297.59 L316.90,298.38 L317.42,299.10 L318.17,299.63 L319.00,299.84 L319.75,299.70 L320.27,299.23 L320.44,298.60 "/><path d="M317.23,298.17 L317.49,298.63 L317.87,299.02 "/><path d="M319.31,299.39 L318.84,299.42 L318.34,299.30 L317.87,299.02 "/><path d="M317.15,297.70 L317.23,297.27 L317.49,296.93 L317.87,296.74 "/><path d="M317.41,297.36 L317.15,297.70 L317.23,298.17 "/><path d="M316.13,297.70 L316.01,297.24 L315.83,296.19 L315.95,295.54 "/><path d="M317.15,297.70 L317.81,296.90 L318.53,298.22 L317.87,299.02 "/><path d="M320.41,300.47 L320.09,300.48 L319.12,300.35 "/><path d="M319.94,298.85 L319.69,299.19 L319.31,299.39 "/><path d="M320.03,298.43 L319.94,297.95 "/><path d="M318.34,296.70 L317.87,296.74 "/><path d="M320.03,298.43 L319.94,298.85 "/><path d="M318.53,298.22 L319.92,298.58 "/><path d="M317.81,296.90 L317.93,296.74 "/></g></g><g id="Actor_.17"><g style="stroke:#000020;stroke-width:0.353"><path d="M312.65,299.77 C312.88,299.17 312.88,299.17 313.12,298.57 C313.43,298.02 313.43,298.02 313.76,297.48 C314.14,297.01 314.14,297.01 314.53,296.55 C314.96,296.18 314.96,296.18 315.40,295.83 C315.85,295.58 315.85,295.58 316.31,295.35 C316.76,295.24 316.77,295.24 317.23,295.15 C317.66,295.17 317.67,295.17 318.10,295.22 "/><path d="M318.89,295.57 C319.23,295.86 319.24,295.86 319.56,296.18 C319.82,296.58 319.82,296.59 320.06,297.01 C320.23,297.51 320.23,297.52 320.38,298.03 C320.45,298.61 320.45,298.61 320.50,299.19 C320.47,299.80 320.47,299.80 320.42,300.42 C320.29,301.04 320.28,301.05 320.13,301.67 C319.90,302.27 319.90,302.27 319.66,302.87 C319.35,303.42 319.35,303.42 319.02,303.96 C318.64,304.43 318.64,304.43 318.25,304.89 C317.82,305.25 317.82,305.26 317.38,305.61 C316.93,305.85 316.93,305.86 316.47,306.08 C316.02,306.20 316.01,306.20 315.55,306.29 C315.12,306.27 315.11,306.27 314.68,306.22 "/><path d="M313.89,305.87 C313.55,305.58 313.54,305.57 313.22,305.26 C312.96,304.85 312.96,304.85 312.72,304.43 C312.55,303.92 312.55,303.92 312.40,303.40 C312.32,302.83 312.33,302.83 312.28,302.25 C312.31,301.63 312.31,301.63 312.36,301.02 C312.49,300.39 312.49,300.39 312.65,299.77 "/><path d="M312.65,299.77 C312.93,299.96 312.93,299.96 313.22,300.15 C313.61,300.37 313.61,300.37 314.01,300.58 C314.48,300.79 314.48,300.79 314.96,301.01 C315.48,301.22 315.48,301.22 316.00,301.42 C316.54,301.60 316.54,301.60 317.08,301.78 C317.59,301.93 317.59,301.93 318.10,302.07 C318.56,302.18 318.56,302.18 319.01,302.27 C319.38,302.32 319.38,302.32 319.74,302.37 C319.80,302.37 319.80,302.37 319.86,302.36 "/><path d="M330.03,289.34 L311.32,284.60 L302.75,312.09 L321.46,316.83 L330.03,306.48 L330.03,289.34 L321.46,316.83 "/><path d="M315.99,297.11 L315.97,297.08 L315.79,295.97 L312.65,299.77 "/><path d="M318.10,295.22 L318.89,295.57 "/><path d="M314.68,306.22 L313.89,305.87 "/><path d="M315.79,295.97 L315.86,295.59 "/><path d="M318.10,302.07 L318.10,304.32 "/></g></g><g id="Actor_.18"><g style="stroke:#000020;stroke-width:0.353"><path d="M186.75,253.08 L186.90,253.08 L193.76,254.82 L205.10,241.11 "/><path d="M186.90,253.08 L202.12,234.69 "/><path d="M201.95,234.64 L186.73,253.04 "/><path d="M206.32,242.20 L195.52,255.26 "/><path d="M195.01,255.13 L206.19,241.62 "/><path d="M193.92,254.90 L193.76,254.82 "/><path d="M194.27,254.95 L205.53,241.33 "/><path d="M194.74,255.06 L205.96,241.50 "/><path d="M206.02,241.52 L194.79,255.08 "/><path d="M197.04,255.65 L207.33,243.21 "/><path d="M197.97,255.92 L198.13,255.92 L209.39,242.31 "/><path d="M198.13,255.92 L204.99,257.66 L220.21,239.27 "/><path d="M196.64,255.55 L207.05,242.96 "/><path d="M197.59,255.79 L207.75,243.51 "/><path d="M197.96,255.88 L209.21,242.27 "/><path d="M232.04,242.27 L205.30,274.59 L205.30,268.31 L227.75,241.18 "/><path d="M205.30,274.68 L232.10,242.28 "/><path d="M205.30,267.57 L227.24,241.05 "/><path d="M205.30,266.47 L226.49,240.86 "/><path d="M205.30,266.22 L226.32,240.82 "/><path d="M225.01,240.48 L205.30,264.31 L205.30,258.03 L220.71,239.40 "/><path d="M205.30,264.39 L225.07,240.50 "/><path d="M204.99,257.66 L205.14,257.74 "/><path d="M318.30,94.01 L346.53,59.89 L346.64,59.81 L346.80,59.81 L318.47,94.05 "/><path d="M324.62,97.39 L353.97,61.92 L353.93,61.76 L353.81,61.63 L353.66,61.55 L324.11,97.26 "/><path d="M326.99,97.99 L353.72,65.68 L352.60,65.40 L352.44,65.32 L352.33,65.18 L352.28,65.03 L325.36,97.58 "/><path d="M352.60,65.40 L325.87,97.70 "/><path d="M325.14,97.52 L353.93,62.73 L353.97,62.60 L325.09,97.51 "/><path d="M353.72,65.68 L353.93,65.85 L353.97,65.97 L327.39,98.09 "/><path d="M335.34,100.10 L364.88,64.40 L358.02,62.66 L328.48,98.37 "/><path d="M354.10,67.14 L354.05,67.08 L353.97,66.77 L327.94,98.23 "/><path d="M328.31,98.32 L357.75,62.73 L357.87,62.66 L358.02,62.66 "/><path d="M364.88,64.40 L365.04,64.47 L365.15,64.61 L365.19,64.76 L335.85,100.23 "/><path d="M340.14,101.32 L365.19,71.04 L365.15,71.18 L340.20,101.34 "/><path d="M341.62,101.70 L364.13,74.49 L363.98,74.49 L363.86,74.56 L341.45,101.65 "/><path d="M342.88,102.02 L365.19,75.04 L365.19,81.33 L365.15,81.46 L347.23,103.12 "/><path d="M364.13,74.49 L364.88,74.68 L342.37,101.89 "/><path d="M365.19,81.33 L347.18,103.10 "/><path d="M346.80,59.81 L353.66,61.55 "/><path d="M352.28,65.03 L352.28,64.72 "/><path d="M353.97,66.77 L353.97,65.97 "/><path d="M353.97,62.60 L353.97,61.92 "/><path d="M361.65,75.40 L362.91,75.72 "/><path d="M365.19,75.04 L365.15,74.89 L365.04,74.76 L364.88,74.68 "/><path d="M365.19,71.04 L365.19,64.76 "/></g></g><g id="Actor_.19"><g style="stroke:#000020;stroke-width:0.353"><path d="M322.70,287.52 C322.78,287.52 322.78,287.52 322.86,287.52 C323.82,287.76 323.82,287.77 324.78,288.01 C327.25,288.64 327.25,288.63 329.72,289.26 C329.79,289.30 329.80,289.30 329.87,289.34 "/><path d="M311.47,284.68 L311.63,284.68 L326.85,266.29 "/><path d="M311.63,284.68 L318.49,286.42 L318.65,286.50 "/><path d="M326.68,266.24 L311.46,284.64 "/><path d="M318.49,286.42 L329.83,272.71 "/><path d="M319.00,286.55 L330.26,272.93 "/><path d="M330.69,273.10 L319.47,286.67 "/><path d="M319.74,286.73 L330.92,273.22 "/><path d="M330.74,273.12 L319.52,286.68 "/><path d="M320.24,286.86 L331.05,273.80 "/><path d="M332.06,274.81 L321.77,287.25 "/><path d="M321.37,287.15 L331.78,274.56 "/><path d="M332.47,275.11 L322.32,287.39 "/><path d="M322.86,287.52 L334.12,273.91 "/><path d="M333.94,273.87 L322.68,287.48 "/><path d="M356.77,273.87 L330.03,306.20 L330.03,299.91 L352.47,272.78 "/><path d="M356.83,273.88 L330.03,306.28 "/><path d="M351.22,272.46 L330.03,298.08 "/><path d="M330.03,299.17 L351.97,272.65 "/><path d="M345.44,271.00 L330.03,289.63 L330.03,295.91 L349.74,272.09 "/><path d="M349.79,272.10 L330.03,295.99 "/><path d="M351.04,272.42 L330.03,297.82 "/><path d="M329.72,289.26 L344.93,270.87 "/><path d="M443.03,125.61 L471.25,91.49 L471.37,91.41 L471.52,91.41 L443.20,125.65 "/><path d="M477.01,96.32 L477.05,96.79 L477.17,96.92 L477.32,97.00 L448.60,131.72 "/><path d="M448.32,131.31 L477.01,96.63 "/><path d="M448.21,131.14 L478.65,94.34 L478.70,94.20 L478.70,93.52 L447.92,130.72 "/><path d="M447.65,130.31 L478.38,93.15 L471.52,91.41 "/><path d="M448.18,131.09 L478.70,94.20 "/><path d="M450.12,132.11 L478.70,97.57 L478.66,97.45 L478.45,97.28 L477.32,97.00 "/><path d="M451.21,132.38 L482.75,94.26 L482.59,94.26 L482.48,94.33 L451.04,132.34 "/><path d="M449.72,132.01 L478.45,97.28 "/><path d="M450.67,132.25 L478.70,98.37 L478.78,98.68 L478.83,98.74 "/><path d="M482.75,94.26 L489.61,96.00 L458.07,134.12 "/><path d="M458.58,134.25 L489.92,96.36 L489.88,96.21 L489.77,96.07 L489.61,96.00 "/><path d="M462.93,135.35 L489.88,102.78 L489.92,102.65 L462.87,135.34 "/><path d="M465.61,136.03 L489.92,106.64 L489.92,112.93 L489.88,113.06 L469.96,137.13 "/><path d="M465.10,135.90 L489.61,106.28 L489.77,106.36 L489.88,106.49 L489.92,106.64 "/><path d="M464.35,135.71 L488.86,106.09 L488.71,106.09 L488.59,106.16 L464.18,135.67 "/><path d="M469.91,137.12 L489.92,112.93 "/><path d="M478.70,98.37 L478.70,97.57 "/><path d="M478.70,93.52 L478.65,93.36 L478.54,93.23 L478.38,93.15 "/><path d="M486.38,107.01 L487.63,107.32 "/><path d="M488.86,106.09 L489.61,106.28 "/><path d="M489.92,102.65 L489.92,96.36 "/></g></g><g id="Actor_.20"><g style="stroke:#000020;stroke-width:0.353"><path d="M365.19,64.47 L373.76,71.26 L365.19,81.61 L365.19,64.47 L346.48,59.73 L346.48,59.94 "/><path d="M365.19,81.61 L365.05,81.58 "/></g></g><g/><g id="paperID" visibility="hidden" opacity="0.00" transform="scale(0.000100)"><path style="stroke:#000000;stroke-width:0.500;fill:#e6e6e6;fill-rule:evenodd" d="M-2000.00,-2000.00L2640.00,-2000.00L2640.00,2360.00L-2000.00,2360.00zM0.00,0.00L640.00,0.00L640.00,360.00L0.00,360.00z"/><path style="fill:#000000;fill-opacity:0.118" d="M3.00,360.00L640.00,360.00L640.00,3.00L643.00,3.00L643.00,363.00L3.00,363.00z"/></g><g id="ToolTip" visibility="hidden" opacity="0" transform="translate(0,0)"><rect id="ToolTipShadow" opacity="0.20" fill="black" stroke="none" x="0" y="0" width="30" height="8"/><rect id="ToolTipBG" fill="#ffffe1" stroke="black" x="0" y="0" width="30" height="8"/><text xml:space="preserve" id="ToolTipText" fill="black" x="0" y="0" width="30" height="8">tooltip</text></g></g></svg>
